M48
; DRILL file {KiCad (5.1.5)-3} date 10/03/2020 17:09:50
; FORMAT={-:-/ absolute / metric / decimal}
; #@! TF.CreationDate,2020-03-10T17:09:50+00:00
; #@! TF.GenerationSoftware,Kicad,Pcbnew,(5.1.5)-3
; #@! TF.FileFunction,Plated,1,2,PTH
FMAT,2
METRIC
T1C0.700
T2C0.800
T3C1.000
%
G90
G05
T1
X142.24Y-121.92
X148.59Y-91.44
X148.59Y-104.14
X134.62Y-124.46
X142.24Y-124.46
X134.62Y-119.38
X142.24Y-119.38
X148.59Y-109.22
X156.21Y-109.22
X134.62Y-121.92
X156.21Y-91.44
X156.21Y-104.14
X148.59Y-106.68
X156.21Y-106.68
X148.59Y-88.9
X156.21Y-88.9
X134.62Y-127.0
X142.24Y-127.0
T2
X148.59Y-124.46
X156.21Y-124.46
X142.28Y-133.35
X144.78Y-133.35
X137.2Y-88.9
X139.7Y-88.9
X148.59Y-134.62
X156.21Y-134.62
X154.98Y-57.15
X157.48Y-57.15
X148.59Y-129.54
X156.21Y-129.54
X148.59Y-62.23
X148.59Y-64.77
X148.59Y-67.31
X148.59Y-69.85
X148.59Y-72.39
X148.59Y-74.93
X148.59Y-77.47
X148.59Y-80.01
X148.59Y-82.55
X156.21Y-62.23
X156.21Y-64.77
X156.21Y-67.31
X156.21Y-69.85
X156.21Y-72.39
X156.21Y-74.93
X156.21Y-77.47
X156.21Y-80.01
X156.21Y-82.55
X134.62Y-93.98
X134.62Y-96.52
X134.62Y-99.06
X134.62Y-101.6
X134.62Y-104.14
X134.62Y-106.68
X134.62Y-109.22
X134.62Y-111.76
X134.62Y-114.3
X142.24Y-93.98
X142.24Y-96.52
X142.24Y-99.06
X142.24Y-101.6
X142.24Y-104.14
X142.24Y-106.68
X142.24Y-109.22
X142.24Y-111.76
X142.24Y-114.3
X134.62Y-62.23
X134.62Y-64.77
X134.62Y-67.31
X134.62Y-69.85
X134.62Y-72.39
X134.62Y-74.93
X134.62Y-77.47
X134.62Y-80.01
X134.62Y-82.55
X142.24Y-62.23
X142.24Y-64.77
X142.24Y-67.31
X142.24Y-69.85
X142.24Y-72.39
X142.24Y-74.93
X142.24Y-77.47
X142.24Y-80.01
X142.24Y-82.55
X149.86Y-97.79
X154.76Y-97.79
X148.59Y-121.92
X156.21Y-121.92
X134.62Y-133.35
X137.12Y-133.35
X148.59Y-132.08
X156.21Y-132.08
X148.59Y-127.0
X156.21Y-127.0
X152.4Y-113.03
X152.4Y-118.11
X154.94Y-115.57
T3
X136.525Y-140.97
X139.065Y-140.97
X141.605Y-140.97
X144.145Y-140.97
X151.13Y-140.97
X153.67Y-140.97
T0
M30
