G04 #@! TF.GenerationSoftware,KiCad,Pcbnew,(5.1.5)-3*
G04 #@! TF.CreationDate,2020-03-10T17:09:28+00:00*
G04 #@! TF.ProjectId,PC-SPRINT,50432d53-5052-4494-9e54-2e6b69636164,rev?*
G04 #@! TF.SameCoordinates,Original*
G04 #@! TF.FileFunction,Copper,L2,Bot*
G04 #@! TF.FilePolarity,Positive*
%FSLAX46Y46*%
G04 Gerber Fmt 4.6, Leading zero omitted, Abs format (unit mm)*
G04 Created by KiCad (PCBNEW (5.1.5)-3) date 2020-03-10 17:09:28*
%MOMM*%
%LPD*%
G04 APERTURE LIST*
%ADD10C,1.500000*%
%ADD11O,1.400000X1.400000*%
%ADD12C,1.400000*%
%ADD13O,2.400000X1.600000*%
%ADD14R,2.400000X1.600000*%
%ADD15C,1.600000*%
%ADD16O,1.700000X1.700000*%
%ADD17R,1.700000X1.700000*%
%ADD18R,1.600000X1.600000*%
%ADD19O,1.600000X1.600000*%
%ADD20O,1.500000X2.000000*%
%ADD21R,1.500000X2.000000*%
%ADD22O,2.000000X1.500000*%
%ADD23C,0.304800*%
G04 APERTURE END LIST*
D10*
X154760000Y-97790000D03*
X149860000Y-97790000D03*
D11*
X156210000Y-88900000D03*
D12*
X148590000Y-88900000D03*
D11*
X156210000Y-91440000D03*
D12*
X148590000Y-91440000D03*
D11*
X156210000Y-104140000D03*
D12*
X148590000Y-104140000D03*
D11*
X142240000Y-119380000D03*
D12*
X134620000Y-119380000D03*
D11*
X142240000Y-121920000D03*
D12*
X134620000Y-121920000D03*
D13*
X142240000Y-62230000D03*
X134620000Y-82550000D03*
X142240000Y-64770000D03*
X134620000Y-80010000D03*
X142240000Y-67310000D03*
X134620000Y-77470000D03*
X142240000Y-69850000D03*
X134620000Y-74930000D03*
X142240000Y-72390000D03*
X134620000Y-72390000D03*
X142240000Y-74930000D03*
X134620000Y-69850000D03*
X142240000Y-77470000D03*
X134620000Y-67310000D03*
X142240000Y-80010000D03*
X134620000Y-64770000D03*
X142240000Y-82550000D03*
D14*
X134620000Y-62230000D03*
D13*
X156210000Y-62230000D03*
X148590000Y-82550000D03*
X156210000Y-64770000D03*
X148590000Y-80010000D03*
X156210000Y-67310000D03*
X148590000Y-77470000D03*
X156210000Y-69850000D03*
X148590000Y-74930000D03*
X156210000Y-72390000D03*
X148590000Y-72390000D03*
X156210000Y-74930000D03*
X148590000Y-69850000D03*
X156210000Y-77470000D03*
X148590000Y-67310000D03*
X156210000Y-80010000D03*
X148590000Y-64770000D03*
X156210000Y-82550000D03*
D14*
X148590000Y-62230000D03*
D13*
X142240000Y-93980000D03*
X134620000Y-114300000D03*
X142240000Y-96520000D03*
X134620000Y-111760000D03*
X142240000Y-99060000D03*
X134620000Y-109220000D03*
X142240000Y-101600000D03*
X134620000Y-106680000D03*
X142240000Y-104140000D03*
X134620000Y-104140000D03*
X142240000Y-106680000D03*
X134620000Y-101600000D03*
X142240000Y-109220000D03*
X134620000Y-99060000D03*
X142240000Y-111760000D03*
X134620000Y-96520000D03*
X142240000Y-114300000D03*
D14*
X134620000Y-93980000D03*
D15*
X137200000Y-88900000D03*
X139700000Y-88900000D03*
D11*
X156210000Y-109220000D03*
D12*
X148590000Y-109220000D03*
D11*
X156210000Y-106680000D03*
D12*
X148590000Y-106680000D03*
D11*
X142240000Y-124460000D03*
D12*
X134620000Y-124460000D03*
D11*
X142240000Y-127000000D03*
D12*
X134620000Y-127000000D03*
D16*
X144145000Y-140970000D03*
X141605000Y-140970000D03*
X139065000Y-140970000D03*
D17*
X136525000Y-140970000D03*
D15*
X137120000Y-133350000D03*
D18*
X134620000Y-133350000D03*
D15*
X154980000Y-57150000D03*
D18*
X157480000Y-57150000D03*
D15*
X142280000Y-133350000D03*
D18*
X144780000Y-133350000D03*
D19*
X156210000Y-121920000D03*
D18*
X148590000Y-121920000D03*
D19*
X156210000Y-124460000D03*
D18*
X148590000Y-124460000D03*
D20*
X152400000Y-118110000D03*
D21*
X152400000Y-113030000D03*
D22*
X154940000Y-115570000D03*
D16*
X153670000Y-140970000D03*
D17*
X151130000Y-140970000D03*
D19*
X156210000Y-132080000D03*
D18*
X148590000Y-132080000D03*
D19*
X156210000Y-129540000D03*
D18*
X148590000Y-129540000D03*
D19*
X156210000Y-134620000D03*
D18*
X148590000Y-134620000D03*
D19*
X156210000Y-127000000D03*
D18*
X148590000Y-127000000D03*
D23*
X140582500Y-89782500D02*
X140582500Y-93980000D01*
X139700000Y-88900000D02*
X140582500Y-89782500D01*
X142240000Y-93980000D02*
X140582500Y-93980000D01*
X142240000Y-62230000D02*
X143897500Y-62230000D01*
X156210000Y-62230000D02*
X154552500Y-62230000D01*
X143897500Y-60855000D02*
X144145000Y-60607500D01*
X143897500Y-62230000D02*
X143897500Y-60855000D01*
X152930000Y-60607500D02*
X154552500Y-62230000D01*
X144145000Y-60607500D02*
X152930000Y-60607500D01*
X156210000Y-62230000D02*
X156210000Y-60960000D01*
X157480000Y-59690000D02*
X157480000Y-57150000D01*
X156210000Y-60960000D02*
X157480000Y-59690000D01*
X140582500Y-98285000D02*
X136277500Y-93980000D01*
X140582500Y-101600000D02*
X140582500Y-98285000D01*
X142240000Y-101600000D02*
X140582500Y-101600000D01*
X134620000Y-93980000D02*
X136277500Y-93980000D01*
X137200000Y-93057500D02*
X137200000Y-88900000D01*
X136277500Y-93980000D02*
X137200000Y-93057500D01*
X134620000Y-82550000D02*
X136277500Y-82550000D01*
X148590000Y-82550000D02*
X146932500Y-82550000D01*
X145620800Y-83861700D02*
X137200000Y-83861700D01*
X146932500Y-82550000D02*
X145620800Y-83861700D01*
X137200000Y-88900000D02*
X137200000Y-83861700D01*
X137200000Y-83472500D02*
X136277500Y-82550000D01*
X137200000Y-83861700D02*
X137200000Y-83472500D01*
X132962790Y-114147590D02*
X133115200Y-114300000D01*
X132962790Y-94132410D02*
X132962790Y-114147590D01*
X133115200Y-93980000D02*
X132962790Y-94132410D01*
X133115200Y-114300000D02*
X134620000Y-114300000D01*
X134620000Y-93980000D02*
X133115200Y-93980000D01*
X133115200Y-125495200D02*
X134620000Y-127000000D01*
X133115200Y-114300000D02*
X133115200Y-124225200D01*
X134620000Y-127000000D02*
X135890000Y-127000000D01*
X135890000Y-127000000D02*
X137120000Y-128230000D01*
X137120000Y-133350000D02*
X142280000Y-133350000D01*
X133115200Y-124225200D02*
X133115200Y-125495200D01*
X137160000Y-123190000D02*
X137160000Y-128270000D01*
X139700000Y-120650000D02*
X137160000Y-123190000D01*
X137160000Y-128270000D02*
X137120000Y-133350000D01*
X152400000Y-118110000D02*
X147320000Y-118110000D01*
X137120000Y-128230000D02*
X137160000Y-128270000D01*
X144780000Y-120650000D02*
X139700000Y-120650000D01*
X147320000Y-118110000D02*
X144780000Y-120650000D01*
X142280000Y-140295000D02*
X141605000Y-140970000D01*
X142280000Y-133350000D02*
X142280000Y-140295000D01*
X141605000Y-140970000D02*
X139065000Y-140970000D01*
X142240000Y-99060000D02*
X143897500Y-99060000D01*
X145167500Y-97790000D02*
X149747600Y-97790000D01*
X143897500Y-99060000D02*
X145167500Y-97790000D01*
X149747600Y-97790000D02*
X149860000Y-97790000D01*
X149747600Y-90057600D02*
X148590000Y-88900000D01*
X149747600Y-97790000D02*
X149747600Y-90057600D01*
X143897500Y-96132500D02*
X143897500Y-96520000D01*
X148590000Y-91440000D02*
X143897500Y-96132500D01*
X142240000Y-96520000D02*
X143897500Y-96520000D01*
X137535000Y-63487500D02*
X136277500Y-62230000D01*
X144044300Y-63487500D02*
X137535000Y-63487500D01*
X145301800Y-62230000D02*
X144044300Y-63487500D01*
X148590000Y-62230000D02*
X145301800Y-62230000D01*
X134620000Y-62230000D02*
X136277500Y-62230000D01*
X146069800Y-82550000D02*
X142240000Y-82550000D01*
X147352200Y-81267600D02*
X146069800Y-82550000D01*
X153270100Y-81267600D02*
X147352200Y-81267600D01*
X154552500Y-82550000D02*
X153270100Y-81267600D01*
X156210000Y-82550000D02*
X154552500Y-82550000D01*
X134620000Y-67310000D02*
X136277500Y-67310000D01*
X145662600Y-68579900D02*
X146932500Y-67310000D01*
X137547400Y-68579900D02*
X145662600Y-68579900D01*
X136277500Y-67310000D02*
X137547400Y-68579900D01*
X148590000Y-67310000D02*
X146932500Y-67310000D01*
X153282600Y-76200100D02*
X154552500Y-77470000D01*
X145167400Y-76200100D02*
X153282600Y-76200100D01*
X143897500Y-77470000D02*
X145167400Y-76200100D01*
X142240000Y-77470000D02*
X143897500Y-77470000D01*
X156210000Y-77470000D02*
X154552500Y-77470000D01*
X137547500Y-71120000D02*
X136277500Y-72390000D01*
X145662500Y-71120000D02*
X137547500Y-71120000D01*
X146932500Y-72390000D02*
X145662500Y-71120000D01*
X148590000Y-72390000D02*
X146932500Y-72390000D01*
X134620000Y-72390000D02*
X136277500Y-72390000D01*
X137547400Y-73660100D02*
X136277500Y-74930000D01*
X145662600Y-73660100D02*
X137547400Y-73660100D01*
X146932500Y-74930000D02*
X145662600Y-73660100D01*
X148590000Y-74930000D02*
X146932500Y-74930000D01*
X134620000Y-74930000D02*
X136277500Y-74930000D01*
X146069800Y-69850000D02*
X142240000Y-69850000D01*
X147352200Y-68567600D02*
X146069800Y-69850000D01*
X153270100Y-68567600D02*
X147352200Y-68567600D01*
X154552500Y-69850000D02*
X153270100Y-68567600D01*
X156210000Y-69850000D02*
X154552500Y-69850000D01*
X137535100Y-78727600D02*
X136277500Y-77470000D01*
X145674900Y-78727600D02*
X137535100Y-78727600D01*
X146932500Y-77470000D02*
X145674900Y-78727600D01*
X148590000Y-77470000D02*
X146932500Y-77470000D01*
X134620000Y-77470000D02*
X136277500Y-77470000D01*
X145167500Y-66040000D02*
X143897500Y-67310000D01*
X153282500Y-66040000D02*
X145167500Y-66040000D01*
X154552500Y-67310000D02*
X153282500Y-66040000D01*
X156210000Y-67310000D02*
X154552500Y-67310000D01*
X142240000Y-67310000D02*
X143897500Y-67310000D01*
X137559800Y-81292300D02*
X136277500Y-80010000D01*
X145650200Y-81292300D02*
X137559800Y-81292300D01*
X146932500Y-80010000D02*
X145650200Y-81292300D01*
X148590000Y-80010000D02*
X146932500Y-80010000D01*
X134620000Y-80010000D02*
X136277500Y-80010000D01*
X145179800Y-63487700D02*
X143897500Y-64770000D01*
X153270200Y-63487700D02*
X145179800Y-63487700D01*
X154552500Y-64770000D02*
X153270200Y-63487700D01*
X156210000Y-64770000D02*
X154552500Y-64770000D01*
X142240000Y-64770000D02*
X143897500Y-64770000D01*
X142240000Y-114300000D02*
X140582500Y-114300000D01*
X142240000Y-106680000D02*
X143897500Y-106680000D01*
X156210000Y-74930000D02*
X157867500Y-74930000D01*
X157867500Y-92710000D02*
X143897500Y-106680000D01*
X157867500Y-74930000D02*
X157867500Y-92710000D01*
X134620000Y-109220000D02*
X136125000Y-109220000D01*
X142240000Y-106680000D02*
X140582500Y-106680000D01*
X138042500Y-111760000D02*
X140582500Y-114300000D01*
X138042500Y-109220000D02*
X138042500Y-111760000D01*
X136125000Y-109220000D02*
X138042500Y-109220000D01*
X138042500Y-109220000D02*
X140582500Y-106680000D01*
X134620000Y-101600000D02*
X136277500Y-101600000D01*
X136277500Y-102375000D02*
X136277500Y-101600000D01*
X140582500Y-106680000D02*
X136277500Y-102375000D01*
X158524600Y-73047100D02*
X157867500Y-72390000D01*
X158524600Y-95885200D02*
X158524600Y-73047100D01*
X149087400Y-105322400D02*
X158524600Y-95885200D01*
X147691500Y-105322400D02*
X149087400Y-105322400D01*
X143897500Y-109116400D02*
X147691500Y-105322400D01*
X143897500Y-109220000D02*
X143897500Y-109116400D01*
X142240000Y-109220000D02*
X143897500Y-109220000D01*
X156210000Y-72390000D02*
X157867500Y-72390000D01*
X142240000Y-125730000D02*
X153670000Y-125730000D01*
X153670000Y-125730000D02*
X154940000Y-127000000D01*
X154940000Y-127000000D02*
X156210000Y-127000000D01*
X142240000Y-127000000D02*
X142240000Y-124460000D01*
X149860000Y-137160000D02*
X153670000Y-140970000D01*
X147320000Y-137160000D02*
X149860000Y-137160000D01*
X147320000Y-127165200D02*
X147320000Y-137160000D01*
X148590000Y-127000000D02*
X147485200Y-127000000D01*
X147485200Y-127000000D02*
X147320000Y-127165200D01*
X142240000Y-111760000D02*
X148590000Y-111760000D01*
X148590000Y-111760000D02*
X151130000Y-109220000D01*
X151130000Y-109220000D02*
X156210000Y-109220000D01*
X151130000Y-132080000D02*
X148590000Y-132080000D01*
X156210000Y-106680000D02*
X157480000Y-107950000D01*
X152387201Y-130822799D02*
X151130000Y-132080000D01*
X152387201Y-130822799D02*
X157467201Y-130822799D01*
X157480000Y-115570000D02*
X158750000Y-116840000D01*
X158750000Y-116840000D02*
X158750000Y-129540000D01*
X158750000Y-129540000D02*
X157467201Y-130822799D01*
X157480000Y-115570000D02*
X154940000Y-115570000D01*
X157480000Y-107950000D02*
X157480000Y-115570000D01*
X140970000Y-116840000D02*
X149860000Y-116840000D01*
X149860000Y-116840000D02*
X151130000Y-115570000D01*
X134620000Y-124460000D02*
X140970000Y-118110000D01*
X140970000Y-118110000D02*
X140970000Y-116840000D01*
X151130000Y-113245200D02*
X151345200Y-113030000D01*
X151345200Y-113030000D02*
X152400000Y-113030000D01*
X151130000Y-115570000D02*
X151130000Y-113245200D01*
M02*
