G04 #@! TF.GenerationSoftware,KiCad,Pcbnew,(5.1.5)-3*
G04 #@! TF.CreationDate,2020-03-10T17:09:28+00:00*
G04 #@! TF.ProjectId,PC-SPRINT,50432d53-5052-4494-9e54-2e6b69636164,rev?*
G04 #@! TF.SameCoordinates,Original*
G04 #@! TF.FileFunction,Legend,Top*
G04 #@! TF.FilePolarity,Positive*
%FSLAX46Y46*%
G04 Gerber Fmt 4.6, Leading zero omitted, Abs format (unit mm)*
G04 Created by KiCad (PCBNEW (5.1.5)-3) date 2020-03-10 17:09:28*
%MOMM*%
%LPD*%
G04 APERTURE LIST*
%ADD10C,0.254000*%
%ADD11C,0.010000*%
%ADD12C,0.120000*%
%ADD13C,0.150000*%
G04 APERTURE END LIST*
D10*
X140107004Y-55831619D02*
X140107004Y-54815619D01*
X140494052Y-54815619D01*
X140590814Y-54864000D01*
X140639195Y-54912380D01*
X140687576Y-55009142D01*
X140687576Y-55154285D01*
X140639195Y-55251047D01*
X140590814Y-55299428D01*
X140494052Y-55347809D01*
X140107004Y-55347809D01*
X141703576Y-55734857D02*
X141655195Y-55783238D01*
X141510052Y-55831619D01*
X141413290Y-55831619D01*
X141268147Y-55783238D01*
X141171385Y-55686476D01*
X141123004Y-55589714D01*
X141074623Y-55396190D01*
X141074623Y-55251047D01*
X141123004Y-55057523D01*
X141171385Y-54960761D01*
X141268147Y-54864000D01*
X141413290Y-54815619D01*
X141510052Y-54815619D01*
X141655195Y-54864000D01*
X141703576Y-54912380D01*
X142139004Y-55444571D02*
X142913100Y-55444571D01*
X143348528Y-55783238D02*
X143493671Y-55831619D01*
X143735576Y-55831619D01*
X143832338Y-55783238D01*
X143880719Y-55734857D01*
X143929100Y-55638095D01*
X143929100Y-55541333D01*
X143880719Y-55444571D01*
X143832338Y-55396190D01*
X143735576Y-55347809D01*
X143542052Y-55299428D01*
X143445290Y-55251047D01*
X143396909Y-55202666D01*
X143348528Y-55105904D01*
X143348528Y-55009142D01*
X143396909Y-54912380D01*
X143445290Y-54864000D01*
X143542052Y-54815619D01*
X143783957Y-54815619D01*
X143929100Y-54864000D01*
X144364528Y-55831619D02*
X144364528Y-54815619D01*
X144751576Y-54815619D01*
X144848338Y-54864000D01*
X144896719Y-54912380D01*
X144945100Y-55009142D01*
X144945100Y-55154285D01*
X144896719Y-55251047D01*
X144848338Y-55299428D01*
X144751576Y-55347809D01*
X144364528Y-55347809D01*
X145961100Y-55831619D02*
X145622433Y-55347809D01*
X145380528Y-55831619D02*
X145380528Y-54815619D01*
X145767576Y-54815619D01*
X145864338Y-54864000D01*
X145912719Y-54912380D01*
X145961100Y-55009142D01*
X145961100Y-55154285D01*
X145912719Y-55251047D01*
X145864338Y-55299428D01*
X145767576Y-55347809D01*
X145380528Y-55347809D01*
X146396528Y-55831619D02*
X146396528Y-54815619D01*
X146880338Y-55831619D02*
X146880338Y-54815619D01*
X147460909Y-55831619D01*
X147460909Y-54815619D01*
X147799576Y-54815619D02*
X148380147Y-54815619D01*
X148089861Y-55831619D02*
X148089861Y-54815619D01*
X149396147Y-55154285D02*
X149638052Y-55831619D01*
X149879957Y-55154285D01*
X150218623Y-54912380D02*
X150267004Y-54864000D01*
X150363766Y-54815619D01*
X150605671Y-54815619D01*
X150702433Y-54864000D01*
X150750814Y-54912380D01*
X150799195Y-55009142D01*
X150799195Y-55105904D01*
X150750814Y-55251047D01*
X150170242Y-55831619D01*
X150799195Y-55831619D01*
X140107004Y-57609619D02*
X140107004Y-56593619D01*
X140348909Y-56593619D01*
X140494052Y-56642000D01*
X140590814Y-56738761D01*
X140639195Y-56835523D01*
X140687576Y-57029047D01*
X140687576Y-57174190D01*
X140639195Y-57367714D01*
X140590814Y-57464476D01*
X140494052Y-57561238D01*
X140348909Y-57609619D01*
X140107004Y-57609619D01*
X141123004Y-57512857D02*
X141171385Y-57561238D01*
X141123004Y-57609619D01*
X141074623Y-57561238D01*
X141123004Y-57512857D01*
X141123004Y-57609619D01*
X142332528Y-57561238D02*
X142477671Y-57609619D01*
X142719576Y-57609619D01*
X142816338Y-57561238D01*
X142864719Y-57512857D01*
X142913100Y-57416095D01*
X142913100Y-57319333D01*
X142864719Y-57222571D01*
X142816338Y-57174190D01*
X142719576Y-57125809D01*
X142526052Y-57077428D01*
X142429290Y-57029047D01*
X142380909Y-56980666D01*
X142332528Y-56883904D01*
X142332528Y-56787142D01*
X142380909Y-56690380D01*
X142429290Y-56642000D01*
X142526052Y-56593619D01*
X142767957Y-56593619D01*
X142913100Y-56642000D01*
X143735576Y-57561238D02*
X143638814Y-57609619D01*
X143445290Y-57609619D01*
X143348528Y-57561238D01*
X143300147Y-57464476D01*
X143300147Y-57077428D01*
X143348528Y-56980666D01*
X143445290Y-56932285D01*
X143638814Y-56932285D01*
X143735576Y-56980666D01*
X143783957Y-57077428D01*
X143783957Y-57174190D01*
X143300147Y-57270952D01*
X144122623Y-56932285D02*
X144364528Y-57609619D01*
X144606433Y-56932285D01*
X145380528Y-57561238D02*
X145283766Y-57609619D01*
X145090242Y-57609619D01*
X144993480Y-57561238D01*
X144945100Y-57464476D01*
X144945100Y-57077428D01*
X144993480Y-56980666D01*
X145090242Y-56932285D01*
X145283766Y-56932285D01*
X145380528Y-56980666D01*
X145428909Y-57077428D01*
X145428909Y-57174190D01*
X144945100Y-57270952D01*
X145864338Y-57609619D02*
X145864338Y-56932285D01*
X145864338Y-57125809D02*
X145912719Y-57029047D01*
X145961100Y-56980666D01*
X146057861Y-56932285D01*
X146154623Y-56932285D01*
X146444909Y-57561238D02*
X146541671Y-57609619D01*
X146735195Y-57609619D01*
X146831957Y-57561238D01*
X146880338Y-57464476D01*
X146880338Y-57416095D01*
X146831957Y-57319333D01*
X146735195Y-57270952D01*
X146590052Y-57270952D01*
X146493290Y-57222571D01*
X146444909Y-57125809D01*
X146444909Y-57077428D01*
X146493290Y-56980666D01*
X146590052Y-56932285D01*
X146735195Y-56932285D01*
X146831957Y-56980666D01*
X147460909Y-57609619D02*
X147364147Y-57561238D01*
X147315766Y-57512857D01*
X147267385Y-57416095D01*
X147267385Y-57125809D01*
X147315766Y-57029047D01*
X147364147Y-56980666D01*
X147460909Y-56932285D01*
X147606052Y-56932285D01*
X147702814Y-56980666D01*
X147751195Y-57029047D01*
X147799576Y-57125809D01*
X147799576Y-57416095D01*
X147751195Y-57512857D01*
X147702814Y-57561238D01*
X147606052Y-57609619D01*
X147460909Y-57609619D01*
X148235004Y-56932285D02*
X148235004Y-57609619D01*
X148235004Y-57029047D02*
X148283385Y-56980666D01*
X148380147Y-56932285D01*
X148525290Y-56932285D01*
X148622052Y-56980666D01*
X148670433Y-57077428D01*
X148670433Y-57609619D01*
X150654052Y-56545238D02*
X149783195Y-57851523D01*
X140542433Y-59339238D02*
X140445671Y-59387619D01*
X140252147Y-59387619D01*
X140155385Y-59339238D01*
X140107004Y-59290857D01*
X140058623Y-59194095D01*
X140058623Y-58903809D01*
X140107004Y-58807047D01*
X140155385Y-58758666D01*
X140252147Y-58710285D01*
X140445671Y-58710285D01*
X140542433Y-58758666D01*
X140832719Y-58710285D02*
X141219766Y-58710285D01*
X140977861Y-58371619D02*
X140977861Y-59242476D01*
X141026242Y-59339238D01*
X141123004Y-59387619D01*
X141219766Y-59387619D01*
X141558433Y-59387619D02*
X141558433Y-58710285D01*
X141558433Y-58903809D02*
X141606814Y-58807047D01*
X141655195Y-58758666D01*
X141751957Y-58710285D01*
X141848719Y-58710285D01*
X142332528Y-59387619D02*
X142235766Y-59339238D01*
X142187385Y-59242476D01*
X142187385Y-58371619D01*
X142719576Y-59000571D02*
X143493671Y-59000571D01*
X144412909Y-59387619D02*
X144412909Y-58855428D01*
X144364528Y-58758666D01*
X144267766Y-58710285D01*
X144074242Y-58710285D01*
X143977480Y-58758666D01*
X144412909Y-59339238D02*
X144316147Y-59387619D01*
X144074242Y-59387619D01*
X143977480Y-59339238D01*
X143929100Y-59242476D01*
X143929100Y-59145714D01*
X143977480Y-59048952D01*
X144074242Y-59000571D01*
X144316147Y-59000571D01*
X144412909Y-58952190D01*
X145041861Y-59387619D02*
X144945100Y-59339238D01*
X144896719Y-59242476D01*
X144896719Y-58371619D01*
X145283766Y-58710285D02*
X145670814Y-58710285D01*
X145428909Y-58371619D02*
X145428909Y-59242476D01*
X145477290Y-59339238D01*
X145574052Y-59387619D01*
X145670814Y-59387619D01*
X146009480Y-59000571D02*
X146783576Y-59000571D01*
X147267385Y-59387619D02*
X147267385Y-58710285D01*
X147267385Y-58903809D02*
X147315766Y-58807047D01*
X147364147Y-58758666D01*
X147460909Y-58710285D01*
X147557671Y-58710285D01*
X148283385Y-59339238D02*
X148186623Y-59387619D01*
X147993100Y-59387619D01*
X147896338Y-59339238D01*
X147847957Y-59242476D01*
X147847957Y-58855428D01*
X147896338Y-58758666D01*
X147993100Y-58710285D01*
X148186623Y-58710285D01*
X148283385Y-58758666D01*
X148331766Y-58855428D01*
X148331766Y-58952190D01*
X147847957Y-59048952D01*
X149154242Y-59339238D02*
X149057480Y-59387619D01*
X148863957Y-59387619D01*
X148767195Y-59339238D01*
X148718814Y-59242476D01*
X148718814Y-58855428D01*
X148767195Y-58758666D01*
X148863957Y-58710285D01*
X149057480Y-58710285D01*
X149154242Y-58758666D01*
X149202623Y-58855428D01*
X149202623Y-58952190D01*
X148718814Y-59048952D01*
X149589671Y-59339238D02*
X149686433Y-59387619D01*
X149879957Y-59387619D01*
X149976719Y-59339238D01*
X150025100Y-59242476D01*
X150025100Y-59194095D01*
X149976719Y-59097333D01*
X149879957Y-59048952D01*
X149734814Y-59048952D01*
X149638052Y-59000571D01*
X149589671Y-58903809D01*
X149589671Y-58855428D01*
X149638052Y-58758666D01*
X149734814Y-58710285D01*
X149879957Y-58710285D01*
X149976719Y-58758666D01*
X150460528Y-59290857D02*
X150508909Y-59339238D01*
X150460528Y-59387619D01*
X150412147Y-59339238D01*
X150460528Y-59290857D01*
X150460528Y-59387619D01*
X151379766Y-59339238D02*
X151283004Y-59387619D01*
X151089480Y-59387619D01*
X150992719Y-59339238D01*
X150944338Y-59290857D01*
X150895957Y-59194095D01*
X150895957Y-58903809D01*
X150944338Y-58807047D01*
X150992719Y-58758666D01*
X151089480Y-58710285D01*
X151283004Y-58710285D01*
X151379766Y-58758666D01*
X151960338Y-59387619D02*
X151863576Y-59339238D01*
X151815195Y-59290857D01*
X151766814Y-59194095D01*
X151766814Y-58903809D01*
X151815195Y-58807047D01*
X151863576Y-58758666D01*
X151960338Y-58710285D01*
X152105480Y-58710285D01*
X152202242Y-58758666D01*
X152250623Y-58807047D01*
X152299004Y-58903809D01*
X152299004Y-59194095D01*
X152250623Y-59290857D01*
X152202242Y-59339238D01*
X152105480Y-59387619D01*
X151960338Y-59387619D01*
X152734433Y-59387619D02*
X152734433Y-58710285D01*
X152734433Y-58807047D02*
X152782814Y-58758666D01*
X152879576Y-58710285D01*
X153024719Y-58710285D01*
X153121480Y-58758666D01*
X153169861Y-58855428D01*
X153169861Y-59387619D01*
X153169861Y-58855428D02*
X153218242Y-58758666D01*
X153315004Y-58710285D01*
X153460147Y-58710285D01*
X153556909Y-58758666D01*
X153605290Y-58855428D01*
X153605290Y-59387619D01*
D11*
G36*
X136445814Y-54618931D02*
G01*
X136529635Y-55063555D01*
X136838920Y-55191053D01*
X137148206Y-55318551D01*
X137519246Y-55066246D01*
X137623157Y-54995996D01*
X137717087Y-54933272D01*
X137796652Y-54880938D01*
X137857470Y-54841857D01*
X137895157Y-54818893D01*
X137905421Y-54813942D01*
X137923910Y-54826676D01*
X137963420Y-54861882D01*
X138019522Y-54915062D01*
X138087787Y-54981718D01*
X138163786Y-55057354D01*
X138243092Y-55137472D01*
X138321275Y-55217574D01*
X138393907Y-55293164D01*
X138456559Y-55359745D01*
X138504803Y-55412818D01*
X138534210Y-55447887D01*
X138541241Y-55459623D01*
X138531123Y-55481260D01*
X138502759Y-55528662D01*
X138459129Y-55597193D01*
X138403218Y-55682215D01*
X138338006Y-55779093D01*
X138300219Y-55834350D01*
X138231343Y-55935248D01*
X138170140Y-56026299D01*
X138119578Y-56102970D01*
X138082628Y-56160728D01*
X138062258Y-56195043D01*
X138059197Y-56202254D01*
X138066136Y-56222748D01*
X138085051Y-56270513D01*
X138113087Y-56338832D01*
X138147391Y-56420989D01*
X138185109Y-56510270D01*
X138223387Y-56599958D01*
X138259370Y-56683338D01*
X138290206Y-56753694D01*
X138313039Y-56804310D01*
X138325017Y-56828471D01*
X138325724Y-56829422D01*
X138344531Y-56834036D01*
X138394618Y-56844328D01*
X138470793Y-56859287D01*
X138567865Y-56877901D01*
X138680643Y-56899159D01*
X138746442Y-56911418D01*
X138866950Y-56934362D01*
X138975797Y-56956195D01*
X139067476Y-56975722D01*
X139136481Y-56991748D01*
X139177304Y-57003079D01*
X139185511Y-57006674D01*
X139193548Y-57031006D01*
X139200033Y-57085959D01*
X139204970Y-57165108D01*
X139208364Y-57262026D01*
X139210218Y-57370287D01*
X139210538Y-57483465D01*
X139209327Y-57595135D01*
X139206590Y-57698868D01*
X139202331Y-57788241D01*
X139196555Y-57856826D01*
X139189267Y-57898197D01*
X139184895Y-57906810D01*
X139158764Y-57917133D01*
X139103393Y-57931892D01*
X139026107Y-57949352D01*
X138934230Y-57967780D01*
X138902158Y-57973741D01*
X138747524Y-58002066D01*
X138625375Y-58024876D01*
X138531673Y-58043080D01*
X138462384Y-58057583D01*
X138413471Y-58069292D01*
X138380897Y-58079115D01*
X138360628Y-58087956D01*
X138348626Y-58096724D01*
X138346947Y-58098457D01*
X138330184Y-58126371D01*
X138304614Y-58180695D01*
X138272788Y-58254777D01*
X138237260Y-58341965D01*
X138200583Y-58435608D01*
X138165311Y-58529052D01*
X138133996Y-58615647D01*
X138109193Y-58688740D01*
X138093454Y-58741678D01*
X138089332Y-58767811D01*
X138089676Y-58768726D01*
X138103641Y-58790086D01*
X138135322Y-58837084D01*
X138181391Y-58904827D01*
X138238518Y-58988423D01*
X138303373Y-59082982D01*
X138321843Y-59109854D01*
X138387699Y-59207275D01*
X138445650Y-59296163D01*
X138492538Y-59371412D01*
X138525207Y-59427920D01*
X138540500Y-59460581D01*
X138541241Y-59464593D01*
X138528392Y-59485684D01*
X138492888Y-59527464D01*
X138439293Y-59585445D01*
X138372171Y-59655135D01*
X138296087Y-59732045D01*
X138215604Y-59811683D01*
X138135287Y-59889561D01*
X138059699Y-59961186D01*
X137993405Y-60022070D01*
X137940969Y-60067721D01*
X137906955Y-60093650D01*
X137897545Y-60097883D01*
X137875643Y-60087912D01*
X137830800Y-60061020D01*
X137770321Y-60021736D01*
X137723789Y-59990117D01*
X137639475Y-59932098D01*
X137539626Y-59863784D01*
X137439473Y-59795579D01*
X137385627Y-59759075D01*
X137203371Y-59635800D01*
X137050381Y-59718520D01*
X136980682Y-59754759D01*
X136921414Y-59782926D01*
X136881311Y-59798991D01*
X136871103Y-59801226D01*
X136858829Y-59784722D01*
X136834613Y-59738082D01*
X136800263Y-59665609D01*
X136757588Y-59571606D01*
X136708394Y-59460374D01*
X136654490Y-59336215D01*
X136597684Y-59203432D01*
X136539782Y-59066327D01*
X136482593Y-58929202D01*
X136427924Y-58796358D01*
X136377584Y-58672098D01*
X136333380Y-58560725D01*
X136297119Y-58466539D01*
X136270609Y-58393844D01*
X136255658Y-58346941D01*
X136253254Y-58330833D01*
X136272311Y-58310286D01*
X136314036Y-58276933D01*
X136369706Y-58237702D01*
X136374378Y-58234599D01*
X136518264Y-58119423D01*
X136634283Y-57985053D01*
X136721430Y-57835784D01*
X136778699Y-57675913D01*
X136805086Y-57509737D01*
X136799585Y-57341552D01*
X136761190Y-57175655D01*
X136688895Y-57016342D01*
X136667626Y-56981487D01*
X136556996Y-56840737D01*
X136426302Y-56727714D01*
X136280064Y-56643003D01*
X136122808Y-56587194D01*
X135959057Y-56560874D01*
X135793333Y-56564630D01*
X135630162Y-56599050D01*
X135474065Y-56664723D01*
X135329567Y-56762235D01*
X135284869Y-56801813D01*
X135171112Y-56925703D01*
X135088218Y-57056124D01*
X135031356Y-57202315D01*
X134999687Y-57347088D01*
X134991869Y-57509860D01*
X135017938Y-57673440D01*
X135075245Y-57832298D01*
X135161144Y-57980906D01*
X135272986Y-58113735D01*
X135408123Y-58225256D01*
X135425883Y-58237011D01*
X135482150Y-58275508D01*
X135524923Y-58308863D01*
X135545372Y-58330160D01*
X135545669Y-58330833D01*
X135541279Y-58353871D01*
X135523876Y-58406157D01*
X135495268Y-58483390D01*
X135457265Y-58581268D01*
X135411674Y-58695491D01*
X135360303Y-58821758D01*
X135304962Y-58955767D01*
X135247458Y-59093218D01*
X135189601Y-59229808D01*
X135133198Y-59361237D01*
X135080058Y-59483205D01*
X135031990Y-59591409D01*
X134990801Y-59681549D01*
X134958301Y-59749323D01*
X134936297Y-59790430D01*
X134927436Y-59801226D01*
X134900360Y-59792819D01*
X134849697Y-59770272D01*
X134784183Y-59737613D01*
X134748159Y-59718520D01*
X134595168Y-59635800D01*
X134412912Y-59759075D01*
X134319875Y-59822228D01*
X134218015Y-59891727D01*
X134122562Y-59957165D01*
X134074750Y-59990117D01*
X134007505Y-60035273D01*
X133950564Y-60071057D01*
X133911354Y-60092938D01*
X133898619Y-60097563D01*
X133880083Y-60085085D01*
X133839059Y-60050252D01*
X133779525Y-59996678D01*
X133705458Y-59927983D01*
X133620835Y-59847781D01*
X133567315Y-59796286D01*
X133473681Y-59704286D01*
X133392759Y-59621999D01*
X133327823Y-59552945D01*
X133282142Y-59500644D01*
X133258989Y-59468616D01*
X133256768Y-59462116D01*
X133267076Y-59437394D01*
X133295561Y-59387405D01*
X133339063Y-59317212D01*
X133394423Y-59231875D01*
X133458480Y-59136456D01*
X133476697Y-59109854D01*
X133543073Y-59013167D01*
X133602622Y-58926117D01*
X133652016Y-58853595D01*
X133687925Y-58800493D01*
X133707019Y-58771703D01*
X133708864Y-58768726D01*
X133706105Y-58745782D01*
X133691462Y-58695336D01*
X133667487Y-58624041D01*
X133636734Y-58538547D01*
X133601756Y-58445507D01*
X133565107Y-58351574D01*
X133529339Y-58263399D01*
X133497006Y-58187634D01*
X133470662Y-58130931D01*
X133452858Y-58099943D01*
X133451593Y-58098457D01*
X133440706Y-58089601D01*
X133422318Y-58080843D01*
X133392394Y-58071277D01*
X133346897Y-58059996D01*
X133281791Y-58046093D01*
X133193039Y-58028663D01*
X133076607Y-58006798D01*
X132928458Y-57979591D01*
X132896382Y-57973741D01*
X132801314Y-57955374D01*
X132718435Y-57937405D01*
X132655070Y-57921569D01*
X132618542Y-57909600D01*
X132613644Y-57906810D01*
X132605573Y-57882072D01*
X132599013Y-57826790D01*
X132593967Y-57747389D01*
X132590441Y-57650296D01*
X132588439Y-57541938D01*
X132587964Y-57428740D01*
X132589023Y-57317128D01*
X132591618Y-57213529D01*
X132595754Y-57124368D01*
X132601437Y-57056072D01*
X132608669Y-57015066D01*
X132613029Y-57006674D01*
X132637302Y-56998208D01*
X132692574Y-56984435D01*
X132773338Y-56966550D01*
X132874088Y-56945748D01*
X132989317Y-56923223D01*
X133052098Y-56911418D01*
X133171213Y-56889151D01*
X133277435Y-56868979D01*
X133365573Y-56851915D01*
X133430434Y-56838969D01*
X133466826Y-56831155D01*
X133472816Y-56829422D01*
X133482939Y-56809890D01*
X133504338Y-56762843D01*
X133534161Y-56695003D01*
X133569555Y-56613091D01*
X133607668Y-56523828D01*
X133645647Y-56433935D01*
X133680640Y-56350135D01*
X133709794Y-56279147D01*
X133730257Y-56227694D01*
X133739177Y-56202497D01*
X133739343Y-56201396D01*
X133729231Y-56181519D01*
X133700883Y-56135777D01*
X133657277Y-56068717D01*
X133601394Y-55984884D01*
X133536213Y-55888826D01*
X133498321Y-55833650D01*
X133429275Y-55732481D01*
X133367950Y-55640630D01*
X133317337Y-55562744D01*
X133280429Y-55503469D01*
X133260218Y-55467451D01*
X133257299Y-55459377D01*
X133269847Y-55440584D01*
X133304537Y-55400457D01*
X133356937Y-55343493D01*
X133422616Y-55274185D01*
X133497144Y-55197031D01*
X133576087Y-55116525D01*
X133655017Y-55037163D01*
X133729500Y-54963440D01*
X133795106Y-54899852D01*
X133847404Y-54850894D01*
X133881961Y-54821061D01*
X133893522Y-54813942D01*
X133912346Y-54823953D01*
X133957369Y-54852078D01*
X134024213Y-54895454D01*
X134108501Y-54951218D01*
X134205856Y-55016506D01*
X134279293Y-55066246D01*
X134650333Y-55318551D01*
X135268905Y-55063555D01*
X135352725Y-54618931D01*
X135436546Y-54174307D01*
X136361994Y-54174307D01*
X136445814Y-54618931D01*
G37*
X136445814Y-54618931D02*
X136529635Y-55063555D01*
X136838920Y-55191053D01*
X137148206Y-55318551D01*
X137519246Y-55066246D01*
X137623157Y-54995996D01*
X137717087Y-54933272D01*
X137796652Y-54880938D01*
X137857470Y-54841857D01*
X137895157Y-54818893D01*
X137905421Y-54813942D01*
X137923910Y-54826676D01*
X137963420Y-54861882D01*
X138019522Y-54915062D01*
X138087787Y-54981718D01*
X138163786Y-55057354D01*
X138243092Y-55137472D01*
X138321275Y-55217574D01*
X138393907Y-55293164D01*
X138456559Y-55359745D01*
X138504803Y-55412818D01*
X138534210Y-55447887D01*
X138541241Y-55459623D01*
X138531123Y-55481260D01*
X138502759Y-55528662D01*
X138459129Y-55597193D01*
X138403218Y-55682215D01*
X138338006Y-55779093D01*
X138300219Y-55834350D01*
X138231343Y-55935248D01*
X138170140Y-56026299D01*
X138119578Y-56102970D01*
X138082628Y-56160728D01*
X138062258Y-56195043D01*
X138059197Y-56202254D01*
X138066136Y-56222748D01*
X138085051Y-56270513D01*
X138113087Y-56338832D01*
X138147391Y-56420989D01*
X138185109Y-56510270D01*
X138223387Y-56599958D01*
X138259370Y-56683338D01*
X138290206Y-56753694D01*
X138313039Y-56804310D01*
X138325017Y-56828471D01*
X138325724Y-56829422D01*
X138344531Y-56834036D01*
X138394618Y-56844328D01*
X138470793Y-56859287D01*
X138567865Y-56877901D01*
X138680643Y-56899159D01*
X138746442Y-56911418D01*
X138866950Y-56934362D01*
X138975797Y-56956195D01*
X139067476Y-56975722D01*
X139136481Y-56991748D01*
X139177304Y-57003079D01*
X139185511Y-57006674D01*
X139193548Y-57031006D01*
X139200033Y-57085959D01*
X139204970Y-57165108D01*
X139208364Y-57262026D01*
X139210218Y-57370287D01*
X139210538Y-57483465D01*
X139209327Y-57595135D01*
X139206590Y-57698868D01*
X139202331Y-57788241D01*
X139196555Y-57856826D01*
X139189267Y-57898197D01*
X139184895Y-57906810D01*
X139158764Y-57917133D01*
X139103393Y-57931892D01*
X139026107Y-57949352D01*
X138934230Y-57967780D01*
X138902158Y-57973741D01*
X138747524Y-58002066D01*
X138625375Y-58024876D01*
X138531673Y-58043080D01*
X138462384Y-58057583D01*
X138413471Y-58069292D01*
X138380897Y-58079115D01*
X138360628Y-58087956D01*
X138348626Y-58096724D01*
X138346947Y-58098457D01*
X138330184Y-58126371D01*
X138304614Y-58180695D01*
X138272788Y-58254777D01*
X138237260Y-58341965D01*
X138200583Y-58435608D01*
X138165311Y-58529052D01*
X138133996Y-58615647D01*
X138109193Y-58688740D01*
X138093454Y-58741678D01*
X138089332Y-58767811D01*
X138089676Y-58768726D01*
X138103641Y-58790086D01*
X138135322Y-58837084D01*
X138181391Y-58904827D01*
X138238518Y-58988423D01*
X138303373Y-59082982D01*
X138321843Y-59109854D01*
X138387699Y-59207275D01*
X138445650Y-59296163D01*
X138492538Y-59371412D01*
X138525207Y-59427920D01*
X138540500Y-59460581D01*
X138541241Y-59464593D01*
X138528392Y-59485684D01*
X138492888Y-59527464D01*
X138439293Y-59585445D01*
X138372171Y-59655135D01*
X138296087Y-59732045D01*
X138215604Y-59811683D01*
X138135287Y-59889561D01*
X138059699Y-59961186D01*
X137993405Y-60022070D01*
X137940969Y-60067721D01*
X137906955Y-60093650D01*
X137897545Y-60097883D01*
X137875643Y-60087912D01*
X137830800Y-60061020D01*
X137770321Y-60021736D01*
X137723789Y-59990117D01*
X137639475Y-59932098D01*
X137539626Y-59863784D01*
X137439473Y-59795579D01*
X137385627Y-59759075D01*
X137203371Y-59635800D01*
X137050381Y-59718520D01*
X136980682Y-59754759D01*
X136921414Y-59782926D01*
X136881311Y-59798991D01*
X136871103Y-59801226D01*
X136858829Y-59784722D01*
X136834613Y-59738082D01*
X136800263Y-59665609D01*
X136757588Y-59571606D01*
X136708394Y-59460374D01*
X136654490Y-59336215D01*
X136597684Y-59203432D01*
X136539782Y-59066327D01*
X136482593Y-58929202D01*
X136427924Y-58796358D01*
X136377584Y-58672098D01*
X136333380Y-58560725D01*
X136297119Y-58466539D01*
X136270609Y-58393844D01*
X136255658Y-58346941D01*
X136253254Y-58330833D01*
X136272311Y-58310286D01*
X136314036Y-58276933D01*
X136369706Y-58237702D01*
X136374378Y-58234599D01*
X136518264Y-58119423D01*
X136634283Y-57985053D01*
X136721430Y-57835784D01*
X136778699Y-57675913D01*
X136805086Y-57509737D01*
X136799585Y-57341552D01*
X136761190Y-57175655D01*
X136688895Y-57016342D01*
X136667626Y-56981487D01*
X136556996Y-56840737D01*
X136426302Y-56727714D01*
X136280064Y-56643003D01*
X136122808Y-56587194D01*
X135959057Y-56560874D01*
X135793333Y-56564630D01*
X135630162Y-56599050D01*
X135474065Y-56664723D01*
X135329567Y-56762235D01*
X135284869Y-56801813D01*
X135171112Y-56925703D01*
X135088218Y-57056124D01*
X135031356Y-57202315D01*
X134999687Y-57347088D01*
X134991869Y-57509860D01*
X135017938Y-57673440D01*
X135075245Y-57832298D01*
X135161144Y-57980906D01*
X135272986Y-58113735D01*
X135408123Y-58225256D01*
X135425883Y-58237011D01*
X135482150Y-58275508D01*
X135524923Y-58308863D01*
X135545372Y-58330160D01*
X135545669Y-58330833D01*
X135541279Y-58353871D01*
X135523876Y-58406157D01*
X135495268Y-58483390D01*
X135457265Y-58581268D01*
X135411674Y-58695491D01*
X135360303Y-58821758D01*
X135304962Y-58955767D01*
X135247458Y-59093218D01*
X135189601Y-59229808D01*
X135133198Y-59361237D01*
X135080058Y-59483205D01*
X135031990Y-59591409D01*
X134990801Y-59681549D01*
X134958301Y-59749323D01*
X134936297Y-59790430D01*
X134927436Y-59801226D01*
X134900360Y-59792819D01*
X134849697Y-59770272D01*
X134784183Y-59737613D01*
X134748159Y-59718520D01*
X134595168Y-59635800D01*
X134412912Y-59759075D01*
X134319875Y-59822228D01*
X134218015Y-59891727D01*
X134122562Y-59957165D01*
X134074750Y-59990117D01*
X134007505Y-60035273D01*
X133950564Y-60071057D01*
X133911354Y-60092938D01*
X133898619Y-60097563D01*
X133880083Y-60085085D01*
X133839059Y-60050252D01*
X133779525Y-59996678D01*
X133705458Y-59927983D01*
X133620835Y-59847781D01*
X133567315Y-59796286D01*
X133473681Y-59704286D01*
X133392759Y-59621999D01*
X133327823Y-59552945D01*
X133282142Y-59500644D01*
X133258989Y-59468616D01*
X133256768Y-59462116D01*
X133267076Y-59437394D01*
X133295561Y-59387405D01*
X133339063Y-59317212D01*
X133394423Y-59231875D01*
X133458480Y-59136456D01*
X133476697Y-59109854D01*
X133543073Y-59013167D01*
X133602622Y-58926117D01*
X133652016Y-58853595D01*
X133687925Y-58800493D01*
X133707019Y-58771703D01*
X133708864Y-58768726D01*
X133706105Y-58745782D01*
X133691462Y-58695336D01*
X133667487Y-58624041D01*
X133636734Y-58538547D01*
X133601756Y-58445507D01*
X133565107Y-58351574D01*
X133529339Y-58263399D01*
X133497006Y-58187634D01*
X133470662Y-58130931D01*
X133452858Y-58099943D01*
X133451593Y-58098457D01*
X133440706Y-58089601D01*
X133422318Y-58080843D01*
X133392394Y-58071277D01*
X133346897Y-58059996D01*
X133281791Y-58046093D01*
X133193039Y-58028663D01*
X133076607Y-58006798D01*
X132928458Y-57979591D01*
X132896382Y-57973741D01*
X132801314Y-57955374D01*
X132718435Y-57937405D01*
X132655070Y-57921569D01*
X132618542Y-57909600D01*
X132613644Y-57906810D01*
X132605573Y-57882072D01*
X132599013Y-57826790D01*
X132593967Y-57747389D01*
X132590441Y-57650296D01*
X132588439Y-57541938D01*
X132587964Y-57428740D01*
X132589023Y-57317128D01*
X132591618Y-57213529D01*
X132595754Y-57124368D01*
X132601437Y-57056072D01*
X132608669Y-57015066D01*
X132613029Y-57006674D01*
X132637302Y-56998208D01*
X132692574Y-56984435D01*
X132773338Y-56966550D01*
X132874088Y-56945748D01*
X132989317Y-56923223D01*
X133052098Y-56911418D01*
X133171213Y-56889151D01*
X133277435Y-56868979D01*
X133365573Y-56851915D01*
X133430434Y-56838969D01*
X133466826Y-56831155D01*
X133472816Y-56829422D01*
X133482939Y-56809890D01*
X133504338Y-56762843D01*
X133534161Y-56695003D01*
X133569555Y-56613091D01*
X133607668Y-56523828D01*
X133645647Y-56433935D01*
X133680640Y-56350135D01*
X133709794Y-56279147D01*
X133730257Y-56227694D01*
X133739177Y-56202497D01*
X133739343Y-56201396D01*
X133729231Y-56181519D01*
X133700883Y-56135777D01*
X133657277Y-56068717D01*
X133601394Y-55984884D01*
X133536213Y-55888826D01*
X133498321Y-55833650D01*
X133429275Y-55732481D01*
X133367950Y-55640630D01*
X133317337Y-55562744D01*
X133280429Y-55503469D01*
X133260218Y-55467451D01*
X133257299Y-55459377D01*
X133269847Y-55440584D01*
X133304537Y-55400457D01*
X133356937Y-55343493D01*
X133422616Y-55274185D01*
X133497144Y-55197031D01*
X133576087Y-55116525D01*
X133655017Y-55037163D01*
X133729500Y-54963440D01*
X133795106Y-54899852D01*
X133847404Y-54850894D01*
X133881961Y-54821061D01*
X133893522Y-54813942D01*
X133912346Y-54823953D01*
X133957369Y-54852078D01*
X134024213Y-54895454D01*
X134108501Y-54951218D01*
X134205856Y-55016506D01*
X134279293Y-55066246D01*
X134650333Y-55318551D01*
X135268905Y-55063555D01*
X135352725Y-54618931D01*
X135436546Y-54174307D01*
X136361994Y-54174307D01*
X136445814Y-54618931D01*
D12*
X155435000Y-100315000D02*
G75*
G03X155435000Y-95265000I0J2525000D01*
G01*
X149185000Y-100315000D02*
G75*
G02X149185000Y-95265000I0J2525000D01*
G01*
X149185000Y-100315000D02*
X155435000Y-100315000D01*
X149185000Y-95265000D02*
X155435000Y-95265000D01*
X155270000Y-88900000D02*
X154320000Y-88900000D01*
X149530000Y-88900000D02*
X150480000Y-88900000D01*
X154320000Y-87980000D02*
X150480000Y-87980000D01*
X154320000Y-89820000D02*
X154320000Y-87980000D01*
X150480000Y-89820000D02*
X154320000Y-89820000D01*
X150480000Y-87980000D02*
X150480000Y-89820000D01*
X155270000Y-91440000D02*
X154320000Y-91440000D01*
X149530000Y-91440000D02*
X150480000Y-91440000D01*
X154320000Y-90520000D02*
X150480000Y-90520000D01*
X154320000Y-92360000D02*
X154320000Y-90520000D01*
X150480000Y-92360000D02*
X154320000Y-92360000D01*
X150480000Y-90520000D02*
X150480000Y-92360000D01*
X155270000Y-104140000D02*
X154320000Y-104140000D01*
X149530000Y-104140000D02*
X150480000Y-104140000D01*
X154320000Y-103220000D02*
X150480000Y-103220000D01*
X154320000Y-105060000D02*
X154320000Y-103220000D01*
X150480000Y-105060000D02*
X154320000Y-105060000D01*
X150480000Y-103220000D02*
X150480000Y-105060000D01*
X141300000Y-119380000D02*
X140350000Y-119380000D01*
X135560000Y-119380000D02*
X136510000Y-119380000D01*
X140350000Y-118460000D02*
X136510000Y-118460000D01*
X140350000Y-120300000D02*
X140350000Y-118460000D01*
X136510000Y-120300000D02*
X140350000Y-120300000D01*
X136510000Y-118460000D02*
X136510000Y-120300000D01*
X141300000Y-121920000D02*
X140350000Y-121920000D01*
X135560000Y-121920000D02*
X136510000Y-121920000D01*
X140350000Y-121000000D02*
X136510000Y-121000000D01*
X140350000Y-122840000D02*
X140350000Y-121000000D01*
X136510000Y-122840000D02*
X140350000Y-122840000D01*
X136510000Y-121000000D02*
X136510000Y-122840000D01*
X140680000Y-60900000D02*
X139430000Y-60900000D01*
X140680000Y-83880000D02*
X140680000Y-60900000D01*
X136180000Y-83880000D02*
X140680000Y-83880000D01*
X136180000Y-60900000D02*
X136180000Y-83880000D01*
X137430000Y-60900000D02*
X136180000Y-60900000D01*
X139430000Y-60900000D02*
G75*
G02X137430000Y-60900000I-1000000J0D01*
G01*
X154650000Y-60900000D02*
X153400000Y-60900000D01*
X154650000Y-83880000D02*
X154650000Y-60900000D01*
X150150000Y-83880000D02*
X154650000Y-83880000D01*
X150150000Y-60900000D02*
X150150000Y-83880000D01*
X151400000Y-60900000D02*
X150150000Y-60900000D01*
X153400000Y-60900000D02*
G75*
G02X151400000Y-60900000I-1000000J0D01*
G01*
X140680000Y-92650000D02*
X139430000Y-92650000D01*
X140680000Y-115630000D02*
X140680000Y-92650000D01*
X136180000Y-115630000D02*
X140680000Y-115630000D01*
X136180000Y-92650000D02*
X136180000Y-115630000D01*
X137430000Y-92650000D02*
X136180000Y-92650000D01*
X139430000Y-92650000D02*
G75*
G02X137430000Y-92650000I-1000000J0D01*
G01*
X135830000Y-90270000D02*
X135830000Y-87530000D01*
X141070000Y-90270000D02*
X141070000Y-87530000D01*
X141070000Y-87530000D02*
X135830000Y-87530000D01*
X141070000Y-90270000D02*
X135830000Y-90270000D01*
X155270000Y-109220000D02*
X154320000Y-109220000D01*
X149530000Y-109220000D02*
X150480000Y-109220000D01*
X154320000Y-108300000D02*
X150480000Y-108300000D01*
X154320000Y-110140000D02*
X154320000Y-108300000D01*
X150480000Y-110140000D02*
X154320000Y-110140000D01*
X150480000Y-108300000D02*
X150480000Y-110140000D01*
X155270000Y-106680000D02*
X154320000Y-106680000D01*
X149530000Y-106680000D02*
X150480000Y-106680000D01*
X154320000Y-105760000D02*
X150480000Y-105760000D01*
X154320000Y-107600000D02*
X154320000Y-105760000D01*
X150480000Y-107600000D02*
X154320000Y-107600000D01*
X150480000Y-105760000D02*
X150480000Y-107600000D01*
X141300000Y-124460000D02*
X140350000Y-124460000D01*
X135560000Y-124460000D02*
X136510000Y-124460000D01*
X140350000Y-123540000D02*
X136510000Y-123540000D01*
X140350000Y-125380000D02*
X140350000Y-123540000D01*
X136510000Y-125380000D02*
X140350000Y-125380000D01*
X136510000Y-123540000D02*
X136510000Y-125380000D01*
X141300000Y-127000000D02*
X140350000Y-127000000D01*
X135560000Y-127000000D02*
X136510000Y-127000000D01*
X140350000Y-126080000D02*
X136510000Y-126080000D01*
X140350000Y-127920000D02*
X140350000Y-126080000D01*
X136510000Y-127920000D02*
X140350000Y-127920000D01*
X136510000Y-126080000D02*
X136510000Y-127920000D01*
X135195000Y-140970000D02*
X135195000Y-139640000D01*
X135195000Y-139640000D02*
X136525000Y-139640000D01*
X137795000Y-139640000D02*
X145475000Y-139640000D01*
X145475000Y-142300000D02*
X145475000Y-139640000D01*
X137795000Y-142300000D02*
X145475000Y-142300000D01*
X137795000Y-142300000D02*
X137795000Y-139640000D01*
X133557712Y-131790000D02*
X133557712Y-132240000D01*
X133332712Y-132015000D02*
X133782712Y-132015000D01*
X133750260Y-134410000D02*
G75*
G03X133750259Y-132290000I2119740J1060000D01*
G01*
X158542288Y-58710000D02*
X158542288Y-58260000D01*
X158767288Y-58485000D02*
X158317288Y-58485000D01*
X158349740Y-56090000D02*
G75*
G03X158349741Y-58210000I-2119740J-1060000D01*
G01*
X145842288Y-134910000D02*
X145842288Y-134460000D01*
X146067288Y-134685000D02*
X145617288Y-134685000D01*
X145649740Y-132290000D02*
G75*
G03X145649741Y-134410000I-2119740J-1060000D01*
G01*
X150880000Y-120800000D02*
X150880000Y-123040000D01*
X151120000Y-120800000D02*
X151120000Y-123040000D01*
X151000000Y-120800000D02*
X151000000Y-123040000D01*
X155170000Y-121920000D02*
X154520000Y-121920000D01*
X149630000Y-121920000D02*
X150280000Y-121920000D01*
X154520000Y-120800000D02*
X150280000Y-120800000D01*
X154520000Y-123040000D02*
X154520000Y-120800000D01*
X150280000Y-123040000D02*
X154520000Y-123040000D01*
X150280000Y-120800000D02*
X150280000Y-123040000D01*
X150880000Y-123340000D02*
X150880000Y-125580000D01*
X151120000Y-123340000D02*
X151120000Y-125580000D01*
X151000000Y-123340000D02*
X151000000Y-125580000D01*
X155170000Y-124460000D02*
X154520000Y-124460000D01*
X149630000Y-124460000D02*
X150280000Y-124460000D01*
X154520000Y-123340000D02*
X150280000Y-123340000D01*
X154520000Y-125580000D02*
X154520000Y-123340000D01*
X150280000Y-125580000D02*
X154520000Y-125580000D01*
X150280000Y-123340000D02*
X150280000Y-125580000D01*
X151277205Y-117894184D02*
G75*
G02X150550000Y-117370000I1122795J2324184D01*
G01*
X153498807Y-117926400D02*
G75*
G03X155000000Y-115570000I-1098807J2356400D01*
G01*
X153498807Y-113213600D02*
G75*
G02X155000000Y-115570000I-1098807J-2356400D01*
G01*
X151277205Y-113245816D02*
G75*
G03X150550000Y-113770000I1122795J-2324184D01*
G01*
X150550000Y-113770000D02*
X150550000Y-117370000D01*
X149800000Y-140970000D02*
X149800000Y-139640000D01*
X149800000Y-139640000D02*
X151130000Y-139640000D01*
X152400000Y-139640000D02*
X155000000Y-139640000D01*
X155000000Y-142300000D02*
X155000000Y-139640000D01*
X152400000Y-142300000D02*
X155000000Y-142300000D01*
X152400000Y-142300000D02*
X152400000Y-139640000D01*
X150880000Y-130960000D02*
X150880000Y-133200000D01*
X151120000Y-130960000D02*
X151120000Y-133200000D01*
X151000000Y-130960000D02*
X151000000Y-133200000D01*
X155170000Y-132080000D02*
X154520000Y-132080000D01*
X149630000Y-132080000D02*
X150280000Y-132080000D01*
X154520000Y-130960000D02*
X150280000Y-130960000D01*
X154520000Y-133200000D02*
X154520000Y-130960000D01*
X150280000Y-133200000D02*
X154520000Y-133200000D01*
X150280000Y-130960000D02*
X150280000Y-133200000D01*
X150880000Y-128420000D02*
X150880000Y-130660000D01*
X151120000Y-128420000D02*
X151120000Y-130660000D01*
X151000000Y-128420000D02*
X151000000Y-130660000D01*
X155170000Y-129540000D02*
X154520000Y-129540000D01*
X149630000Y-129540000D02*
X150280000Y-129540000D01*
X154520000Y-128420000D02*
X150280000Y-128420000D01*
X154520000Y-130660000D02*
X154520000Y-128420000D01*
X150280000Y-130660000D02*
X154520000Y-130660000D01*
X150280000Y-128420000D02*
X150280000Y-130660000D01*
X150880000Y-133500000D02*
X150880000Y-135740000D01*
X151120000Y-133500000D02*
X151120000Y-135740000D01*
X151000000Y-133500000D02*
X151000000Y-135740000D01*
X155170000Y-134620000D02*
X154520000Y-134620000D01*
X149630000Y-134620000D02*
X150280000Y-134620000D01*
X154520000Y-133500000D02*
X150280000Y-133500000D01*
X154520000Y-135740000D02*
X154520000Y-133500000D01*
X150280000Y-135740000D02*
X154520000Y-135740000D01*
X150280000Y-133500000D02*
X150280000Y-135740000D01*
X150880000Y-125880000D02*
X150880000Y-128120000D01*
X151120000Y-125880000D02*
X151120000Y-128120000D01*
X151000000Y-125880000D02*
X151000000Y-128120000D01*
X155170000Y-127000000D02*
X154520000Y-127000000D01*
X149630000Y-127000000D02*
X150280000Y-127000000D01*
X154520000Y-125880000D02*
X150280000Y-125880000D01*
X154520000Y-128120000D02*
X154520000Y-125880000D01*
X150280000Y-128120000D02*
X154520000Y-128120000D01*
X150280000Y-125880000D02*
X150280000Y-128120000D01*
D13*
X151590476Y-101052380D02*
X152257142Y-102052380D01*
X152257142Y-101052380D02*
X151590476Y-102052380D01*
X153161904Y-102052380D02*
X152590476Y-102052380D01*
X152876190Y-102052380D02*
X152876190Y-101052380D01*
X152780952Y-101195238D01*
X152685714Y-101290476D01*
X152590476Y-101338095D01*
X158583333Y-89352380D02*
X158250000Y-88876190D01*
X158011904Y-89352380D02*
X158011904Y-88352380D01*
X158392857Y-88352380D01*
X158488095Y-88400000D01*
X158535714Y-88447619D01*
X158583333Y-88542857D01*
X158583333Y-88685714D01*
X158535714Y-88780952D01*
X158488095Y-88828571D01*
X158392857Y-88876190D01*
X158011904Y-88876190D01*
X159535714Y-89352380D02*
X158964285Y-89352380D01*
X159250000Y-89352380D02*
X159250000Y-88352380D01*
X159154761Y-88495238D01*
X159059523Y-88590476D01*
X158964285Y-88638095D01*
X158583333Y-91892380D02*
X158250000Y-91416190D01*
X158011904Y-91892380D02*
X158011904Y-90892380D01*
X158392857Y-90892380D01*
X158488095Y-90940000D01*
X158535714Y-90987619D01*
X158583333Y-91082857D01*
X158583333Y-91225714D01*
X158535714Y-91320952D01*
X158488095Y-91368571D01*
X158392857Y-91416190D01*
X158011904Y-91416190D01*
X158964285Y-90987619D02*
X159011904Y-90940000D01*
X159107142Y-90892380D01*
X159345238Y-90892380D01*
X159440476Y-90940000D01*
X159488095Y-90987619D01*
X159535714Y-91082857D01*
X159535714Y-91178095D01*
X159488095Y-91320952D01*
X158916666Y-91892380D01*
X159535714Y-91892380D01*
X158583333Y-104592380D02*
X158250000Y-104116190D01*
X158011904Y-104592380D02*
X158011904Y-103592380D01*
X158392857Y-103592380D01*
X158488095Y-103640000D01*
X158535714Y-103687619D01*
X158583333Y-103782857D01*
X158583333Y-103925714D01*
X158535714Y-104020952D01*
X158488095Y-104068571D01*
X158392857Y-104116190D01*
X158011904Y-104116190D01*
X158916666Y-103592380D02*
X159535714Y-103592380D01*
X159202380Y-103973333D01*
X159345238Y-103973333D01*
X159440476Y-104020952D01*
X159488095Y-104068571D01*
X159535714Y-104163809D01*
X159535714Y-104401904D01*
X159488095Y-104497142D01*
X159440476Y-104544761D01*
X159345238Y-104592380D01*
X159059523Y-104592380D01*
X158964285Y-104544761D01*
X158916666Y-104497142D01*
X131913333Y-119832380D02*
X131580000Y-119356190D01*
X131341904Y-119832380D02*
X131341904Y-118832380D01*
X131722857Y-118832380D01*
X131818095Y-118880000D01*
X131865714Y-118927619D01*
X131913333Y-119022857D01*
X131913333Y-119165714D01*
X131865714Y-119260952D01*
X131818095Y-119308571D01*
X131722857Y-119356190D01*
X131341904Y-119356190D01*
X132770476Y-119165714D02*
X132770476Y-119832380D01*
X132532380Y-118784761D02*
X132294285Y-119499047D01*
X132913333Y-119499047D01*
X131913333Y-122372380D02*
X131580000Y-121896190D01*
X131341904Y-122372380D02*
X131341904Y-121372380D01*
X131722857Y-121372380D01*
X131818095Y-121420000D01*
X131865714Y-121467619D01*
X131913333Y-121562857D01*
X131913333Y-121705714D01*
X131865714Y-121800952D01*
X131818095Y-121848571D01*
X131722857Y-121896190D01*
X131341904Y-121896190D01*
X132818095Y-121372380D02*
X132341904Y-121372380D01*
X132294285Y-121848571D01*
X132341904Y-121800952D01*
X132437142Y-121753333D01*
X132675238Y-121753333D01*
X132770476Y-121800952D01*
X132818095Y-121848571D01*
X132865714Y-121943809D01*
X132865714Y-122181904D01*
X132818095Y-122277142D01*
X132770476Y-122324761D01*
X132675238Y-122372380D01*
X132437142Y-122372380D01*
X132341904Y-122324761D01*
X132294285Y-122277142D01*
X137668095Y-84542380D02*
X137668095Y-85351904D01*
X137715714Y-85447142D01*
X137763333Y-85494761D01*
X137858571Y-85542380D01*
X138049047Y-85542380D01*
X138144285Y-85494761D01*
X138191904Y-85447142D01*
X138239523Y-85351904D01*
X138239523Y-84542380D01*
X139239523Y-85542380D02*
X138668095Y-85542380D01*
X138953809Y-85542380D02*
X138953809Y-84542380D01*
X138858571Y-84685238D01*
X138763333Y-84780476D01*
X138668095Y-84828095D01*
X151638095Y-84542380D02*
X151638095Y-85351904D01*
X151685714Y-85447142D01*
X151733333Y-85494761D01*
X151828571Y-85542380D01*
X152019047Y-85542380D01*
X152114285Y-85494761D01*
X152161904Y-85447142D01*
X152209523Y-85351904D01*
X152209523Y-84542380D01*
X152638095Y-84637619D02*
X152685714Y-84590000D01*
X152780952Y-84542380D01*
X153019047Y-84542380D01*
X153114285Y-84590000D01*
X153161904Y-84637619D01*
X153209523Y-84732857D01*
X153209523Y-84828095D01*
X153161904Y-84970952D01*
X152590476Y-85542380D01*
X153209523Y-85542380D01*
X137668095Y-116292380D02*
X137668095Y-117101904D01*
X137715714Y-117197142D01*
X137763333Y-117244761D01*
X137858571Y-117292380D01*
X138049047Y-117292380D01*
X138144285Y-117244761D01*
X138191904Y-117197142D01*
X138239523Y-117101904D01*
X138239523Y-116292380D01*
X138620476Y-116292380D02*
X139239523Y-116292380D01*
X138906190Y-116673333D01*
X139049047Y-116673333D01*
X139144285Y-116720952D01*
X139191904Y-116768571D01*
X139239523Y-116863809D01*
X139239523Y-117101904D01*
X139191904Y-117197142D01*
X139144285Y-117244761D01*
X139049047Y-117292380D01*
X138763333Y-117292380D01*
X138668095Y-117244761D01*
X138620476Y-117197142D01*
X138263333Y-91797142D02*
X138215714Y-91844761D01*
X138072857Y-91892380D01*
X137977619Y-91892380D01*
X137834761Y-91844761D01*
X137739523Y-91749523D01*
X137691904Y-91654285D01*
X137644285Y-91463809D01*
X137644285Y-91320952D01*
X137691904Y-91130476D01*
X137739523Y-91035238D01*
X137834761Y-90940000D01*
X137977619Y-90892380D01*
X138072857Y-90892380D01*
X138215714Y-90940000D01*
X138263333Y-90987619D01*
X138644285Y-90987619D02*
X138691904Y-90940000D01*
X138787142Y-90892380D01*
X139025238Y-90892380D01*
X139120476Y-90940000D01*
X139168095Y-90987619D01*
X139215714Y-91082857D01*
X139215714Y-91178095D01*
X139168095Y-91320952D01*
X138596666Y-91892380D01*
X139215714Y-91892380D01*
X158583333Y-109672380D02*
X158250000Y-109196190D01*
X158011904Y-109672380D02*
X158011904Y-108672380D01*
X158392857Y-108672380D01*
X158488095Y-108720000D01*
X158535714Y-108767619D01*
X158583333Y-108862857D01*
X158583333Y-109005714D01*
X158535714Y-109100952D01*
X158488095Y-109148571D01*
X158392857Y-109196190D01*
X158011904Y-109196190D01*
X159059523Y-109672380D02*
X159250000Y-109672380D01*
X159345238Y-109624761D01*
X159392857Y-109577142D01*
X159488095Y-109434285D01*
X159535714Y-109243809D01*
X159535714Y-108862857D01*
X159488095Y-108767619D01*
X159440476Y-108720000D01*
X159345238Y-108672380D01*
X159154761Y-108672380D01*
X159059523Y-108720000D01*
X159011904Y-108767619D01*
X158964285Y-108862857D01*
X158964285Y-109100952D01*
X159011904Y-109196190D01*
X159059523Y-109243809D01*
X159154761Y-109291428D01*
X159345238Y-109291428D01*
X159440476Y-109243809D01*
X159488095Y-109196190D01*
X159535714Y-109100952D01*
X158583333Y-107132380D02*
X158250000Y-106656190D01*
X158011904Y-107132380D02*
X158011904Y-106132380D01*
X158392857Y-106132380D01*
X158488095Y-106180000D01*
X158535714Y-106227619D01*
X158583333Y-106322857D01*
X158583333Y-106465714D01*
X158535714Y-106560952D01*
X158488095Y-106608571D01*
X158392857Y-106656190D01*
X158011904Y-106656190D01*
X159154761Y-106560952D02*
X159059523Y-106513333D01*
X159011904Y-106465714D01*
X158964285Y-106370476D01*
X158964285Y-106322857D01*
X159011904Y-106227619D01*
X159059523Y-106180000D01*
X159154761Y-106132380D01*
X159345238Y-106132380D01*
X159440476Y-106180000D01*
X159488095Y-106227619D01*
X159535714Y-106322857D01*
X159535714Y-106370476D01*
X159488095Y-106465714D01*
X159440476Y-106513333D01*
X159345238Y-106560952D01*
X159154761Y-106560952D01*
X159059523Y-106608571D01*
X159011904Y-106656190D01*
X158964285Y-106751428D01*
X158964285Y-106941904D01*
X159011904Y-107037142D01*
X159059523Y-107084761D01*
X159154761Y-107132380D01*
X159345238Y-107132380D01*
X159440476Y-107084761D01*
X159488095Y-107037142D01*
X159535714Y-106941904D01*
X159535714Y-106751428D01*
X159488095Y-106656190D01*
X159440476Y-106608571D01*
X159345238Y-106560952D01*
X131913333Y-124912380D02*
X131580000Y-124436190D01*
X131341904Y-124912380D02*
X131341904Y-123912380D01*
X131722857Y-123912380D01*
X131818095Y-123960000D01*
X131865714Y-124007619D01*
X131913333Y-124102857D01*
X131913333Y-124245714D01*
X131865714Y-124340952D01*
X131818095Y-124388571D01*
X131722857Y-124436190D01*
X131341904Y-124436190D01*
X132246666Y-123912380D02*
X132913333Y-123912380D01*
X132484761Y-124912380D01*
X131913333Y-127452380D02*
X131580000Y-126976190D01*
X131341904Y-127452380D02*
X131341904Y-126452380D01*
X131722857Y-126452380D01*
X131818095Y-126500000D01*
X131865714Y-126547619D01*
X131913333Y-126642857D01*
X131913333Y-126785714D01*
X131865714Y-126880952D01*
X131818095Y-126928571D01*
X131722857Y-126976190D01*
X131341904Y-126976190D01*
X132770476Y-126452380D02*
X132580000Y-126452380D01*
X132484761Y-126500000D01*
X132437142Y-126547619D01*
X132341904Y-126690476D01*
X132294285Y-126880952D01*
X132294285Y-127261904D01*
X132341904Y-127357142D01*
X132389523Y-127404761D01*
X132484761Y-127452380D01*
X132675238Y-127452380D01*
X132770476Y-127404761D01*
X132818095Y-127357142D01*
X132865714Y-127261904D01*
X132865714Y-127023809D01*
X132818095Y-126928571D01*
X132770476Y-126880952D01*
X132675238Y-126833333D01*
X132484761Y-126833333D01*
X132389523Y-126880952D01*
X132341904Y-126928571D01*
X132294285Y-127023809D01*
X140001666Y-142962380D02*
X140001666Y-143676666D01*
X139954047Y-143819523D01*
X139858809Y-143914761D01*
X139715952Y-143962380D01*
X139620714Y-143962380D01*
X141001666Y-143962380D02*
X140430238Y-143962380D01*
X140715952Y-143962380D02*
X140715952Y-142962380D01*
X140620714Y-143105238D01*
X140525476Y-143200476D01*
X140430238Y-143248095D01*
X135723333Y-137517142D02*
X135675714Y-137564761D01*
X135532857Y-137612380D01*
X135437619Y-137612380D01*
X135294761Y-137564761D01*
X135199523Y-137469523D01*
X135151904Y-137374285D01*
X135104285Y-137183809D01*
X135104285Y-137040952D01*
X135151904Y-136850476D01*
X135199523Y-136755238D01*
X135294761Y-136660000D01*
X135437619Y-136612380D01*
X135532857Y-136612380D01*
X135675714Y-136660000D01*
X135723333Y-136707619D01*
X136056666Y-136612380D02*
X136675714Y-136612380D01*
X136342380Y-136993333D01*
X136485238Y-136993333D01*
X136580476Y-137040952D01*
X136628095Y-137088571D01*
X136675714Y-137183809D01*
X136675714Y-137421904D01*
X136628095Y-137517142D01*
X136580476Y-137564761D01*
X136485238Y-137612380D01*
X136199523Y-137612380D01*
X136104285Y-137564761D01*
X136056666Y-137517142D01*
X153503333Y-54967142D02*
X153455714Y-55014761D01*
X153312857Y-55062380D01*
X153217619Y-55062380D01*
X153074761Y-55014761D01*
X152979523Y-54919523D01*
X152931904Y-54824285D01*
X152884285Y-54633809D01*
X152884285Y-54490952D01*
X152931904Y-54300476D01*
X152979523Y-54205238D01*
X153074761Y-54110000D01*
X153217619Y-54062380D01*
X153312857Y-54062380D01*
X153455714Y-54110000D01*
X153503333Y-54157619D01*
X154455714Y-55062380D02*
X153884285Y-55062380D01*
X154170000Y-55062380D02*
X154170000Y-54062380D01*
X154074761Y-54205238D01*
X153979523Y-54300476D01*
X153884285Y-54348095D01*
X143343333Y-137517142D02*
X143295714Y-137564761D01*
X143152857Y-137612380D01*
X143057619Y-137612380D01*
X142914761Y-137564761D01*
X142819523Y-137469523D01*
X142771904Y-137374285D01*
X142724285Y-137183809D01*
X142724285Y-137040952D01*
X142771904Y-136850476D01*
X142819523Y-136755238D01*
X142914761Y-136660000D01*
X143057619Y-136612380D01*
X143152857Y-136612380D01*
X143295714Y-136660000D01*
X143343333Y-136707619D01*
X144200476Y-136945714D02*
X144200476Y-137612380D01*
X143962380Y-136564761D02*
X143724285Y-137279047D01*
X144343333Y-137279047D01*
X158011904Y-122372380D02*
X158011904Y-121372380D01*
X158250000Y-121372380D01*
X158392857Y-121420000D01*
X158488095Y-121515238D01*
X158535714Y-121610476D01*
X158583333Y-121800952D01*
X158583333Y-121943809D01*
X158535714Y-122134285D01*
X158488095Y-122229523D01*
X158392857Y-122324761D01*
X158250000Y-122372380D01*
X158011904Y-122372380D01*
X159535714Y-122372380D02*
X158964285Y-122372380D01*
X159250000Y-122372380D02*
X159250000Y-121372380D01*
X159154761Y-121515238D01*
X159059523Y-121610476D01*
X158964285Y-121658095D01*
X158011904Y-124912380D02*
X158011904Y-123912380D01*
X158250000Y-123912380D01*
X158392857Y-123960000D01*
X158488095Y-124055238D01*
X158535714Y-124150476D01*
X158583333Y-124340952D01*
X158583333Y-124483809D01*
X158535714Y-124674285D01*
X158488095Y-124769523D01*
X158392857Y-124864761D01*
X158250000Y-124912380D01*
X158011904Y-124912380D01*
X158964285Y-124007619D02*
X159011904Y-123960000D01*
X159107142Y-123912380D01*
X159345238Y-123912380D01*
X159440476Y-123960000D01*
X159488095Y-124007619D01*
X159535714Y-124102857D01*
X159535714Y-124198095D01*
X159488095Y-124340952D01*
X158916666Y-124912380D01*
X159535714Y-124912380D01*
X156114761Y-113577619D02*
X156019523Y-113530000D01*
X155924285Y-113434761D01*
X155781428Y-113291904D01*
X155686190Y-113244285D01*
X155590952Y-113244285D01*
X155638571Y-113482380D02*
X155543333Y-113434761D01*
X155448095Y-113339523D01*
X155400476Y-113149047D01*
X155400476Y-112815714D01*
X155448095Y-112625238D01*
X155543333Y-112530000D01*
X155638571Y-112482380D01*
X155829047Y-112482380D01*
X155924285Y-112530000D01*
X156019523Y-112625238D01*
X156067142Y-112815714D01*
X156067142Y-113149047D01*
X156019523Y-113339523D01*
X155924285Y-113434761D01*
X155829047Y-113482380D01*
X155638571Y-113482380D01*
X157019523Y-113482380D02*
X156448095Y-113482380D01*
X156733809Y-113482380D02*
X156733809Y-112482380D01*
X156638571Y-112625238D01*
X156543333Y-112720476D01*
X156448095Y-112768095D01*
X152066666Y-142962380D02*
X152066666Y-143676666D01*
X152019047Y-143819523D01*
X151923809Y-143914761D01*
X151780952Y-143962380D01*
X151685714Y-143962380D01*
X152495238Y-143057619D02*
X152542857Y-143010000D01*
X152638095Y-142962380D01*
X152876190Y-142962380D01*
X152971428Y-143010000D01*
X153019047Y-143057619D01*
X153066666Y-143152857D01*
X153066666Y-143248095D01*
X153019047Y-143390952D01*
X152447619Y-143962380D01*
X153066666Y-143962380D01*
X158011904Y-132532380D02*
X158011904Y-131532380D01*
X158250000Y-131532380D01*
X158392857Y-131580000D01*
X158488095Y-131675238D01*
X158535714Y-131770476D01*
X158583333Y-131960952D01*
X158583333Y-132103809D01*
X158535714Y-132294285D01*
X158488095Y-132389523D01*
X158392857Y-132484761D01*
X158250000Y-132532380D01*
X158011904Y-132532380D01*
X159440476Y-131532380D02*
X159250000Y-131532380D01*
X159154761Y-131580000D01*
X159107142Y-131627619D01*
X159011904Y-131770476D01*
X158964285Y-131960952D01*
X158964285Y-132341904D01*
X159011904Y-132437142D01*
X159059523Y-132484761D01*
X159154761Y-132532380D01*
X159345238Y-132532380D01*
X159440476Y-132484761D01*
X159488095Y-132437142D01*
X159535714Y-132341904D01*
X159535714Y-132103809D01*
X159488095Y-132008571D01*
X159440476Y-131960952D01*
X159345238Y-131913333D01*
X159154761Y-131913333D01*
X159059523Y-131960952D01*
X159011904Y-132008571D01*
X158964285Y-132103809D01*
X158011904Y-129992380D02*
X158011904Y-128992380D01*
X158250000Y-128992380D01*
X158392857Y-129040000D01*
X158488095Y-129135238D01*
X158535714Y-129230476D01*
X158583333Y-129420952D01*
X158583333Y-129563809D01*
X158535714Y-129754285D01*
X158488095Y-129849523D01*
X158392857Y-129944761D01*
X158250000Y-129992380D01*
X158011904Y-129992380D01*
X159488095Y-128992380D02*
X159011904Y-128992380D01*
X158964285Y-129468571D01*
X159011904Y-129420952D01*
X159107142Y-129373333D01*
X159345238Y-129373333D01*
X159440476Y-129420952D01*
X159488095Y-129468571D01*
X159535714Y-129563809D01*
X159535714Y-129801904D01*
X159488095Y-129897142D01*
X159440476Y-129944761D01*
X159345238Y-129992380D01*
X159107142Y-129992380D01*
X159011904Y-129944761D01*
X158964285Y-129897142D01*
X158011904Y-135072380D02*
X158011904Y-134072380D01*
X158250000Y-134072380D01*
X158392857Y-134120000D01*
X158488095Y-134215238D01*
X158535714Y-134310476D01*
X158583333Y-134500952D01*
X158583333Y-134643809D01*
X158535714Y-134834285D01*
X158488095Y-134929523D01*
X158392857Y-135024761D01*
X158250000Y-135072380D01*
X158011904Y-135072380D01*
X159440476Y-134405714D02*
X159440476Y-135072380D01*
X159202380Y-134024761D02*
X158964285Y-134739047D01*
X159583333Y-134739047D01*
X158011904Y-127452380D02*
X158011904Y-126452380D01*
X158250000Y-126452380D01*
X158392857Y-126500000D01*
X158488095Y-126595238D01*
X158535714Y-126690476D01*
X158583333Y-126880952D01*
X158583333Y-127023809D01*
X158535714Y-127214285D01*
X158488095Y-127309523D01*
X158392857Y-127404761D01*
X158250000Y-127452380D01*
X158011904Y-127452380D01*
X158916666Y-126452380D02*
X159535714Y-126452380D01*
X159202380Y-126833333D01*
X159345238Y-126833333D01*
X159440476Y-126880952D01*
X159488095Y-126928571D01*
X159535714Y-127023809D01*
X159535714Y-127261904D01*
X159488095Y-127357142D01*
X159440476Y-127404761D01*
X159345238Y-127452380D01*
X159059523Y-127452380D01*
X158964285Y-127404761D01*
X158916666Y-127357142D01*
M02*
