G04 #@! TF.FileFunction,Legend,Top*
%FSLAX46Y46*%
G04 Gerber Fmt 4.6, Leading zero omitted, Abs format (unit mm)*
G04 Created by KiCad (PCBNEW 4.0.7) date Thursday, November 09, 2017 'PMt' 11:15:27 PM*
%MOMM*%
%LPD*%
G01*
G04 APERTURE LIST*
%ADD10C,0.100000*%
%ADD11C,0.254000*%
%ADD12C,0.120000*%
%ADD13C,0.150000*%
G04 APERTURE END LIST*
D10*
D11*
X129286000Y-79199619D02*
X129286000Y-78183619D01*
X129673047Y-78183619D01*
X129769809Y-78232000D01*
X129818190Y-78280381D01*
X129866571Y-78377143D01*
X129866571Y-78522286D01*
X129818190Y-78619048D01*
X129769809Y-78667429D01*
X129673047Y-78715810D01*
X129286000Y-78715810D01*
X130882571Y-79102857D02*
X130834190Y-79151238D01*
X130689047Y-79199619D01*
X130592285Y-79199619D01*
X130447143Y-79151238D01*
X130350381Y-79054476D01*
X130302000Y-78957714D01*
X130253619Y-78764190D01*
X130253619Y-78619048D01*
X130302000Y-78425524D01*
X130350381Y-78328762D01*
X130447143Y-78232000D01*
X130592285Y-78183619D01*
X130689047Y-78183619D01*
X130834190Y-78232000D01*
X130882571Y-78280381D01*
X131318000Y-78812571D02*
X132092095Y-78812571D01*
X132527524Y-79151238D02*
X132672667Y-79199619D01*
X132914571Y-79199619D01*
X133011333Y-79151238D01*
X133059714Y-79102857D01*
X133108095Y-79006095D01*
X133108095Y-78909333D01*
X133059714Y-78812571D01*
X133011333Y-78764190D01*
X132914571Y-78715810D01*
X132721048Y-78667429D01*
X132624286Y-78619048D01*
X132575905Y-78570667D01*
X132527524Y-78473905D01*
X132527524Y-78377143D01*
X132575905Y-78280381D01*
X132624286Y-78232000D01*
X132721048Y-78183619D01*
X132962952Y-78183619D01*
X133108095Y-78232000D01*
X133543524Y-79199619D02*
X133543524Y-78183619D01*
X133930571Y-78183619D01*
X134027333Y-78232000D01*
X134075714Y-78280381D01*
X134124095Y-78377143D01*
X134124095Y-78522286D01*
X134075714Y-78619048D01*
X134027333Y-78667429D01*
X133930571Y-78715810D01*
X133543524Y-78715810D01*
X135140095Y-79199619D02*
X134801429Y-78715810D01*
X134559524Y-79199619D02*
X134559524Y-78183619D01*
X134946571Y-78183619D01*
X135043333Y-78232000D01*
X135091714Y-78280381D01*
X135140095Y-78377143D01*
X135140095Y-78522286D01*
X135091714Y-78619048D01*
X135043333Y-78667429D01*
X134946571Y-78715810D01*
X134559524Y-78715810D01*
X135575524Y-79199619D02*
X135575524Y-78183619D01*
X136059334Y-79199619D02*
X136059334Y-78183619D01*
X136639905Y-79199619D01*
X136639905Y-78183619D01*
X136978572Y-78183619D02*
X137559143Y-78183619D01*
X137268858Y-79199619D02*
X137268858Y-78183619D01*
D12*
X146745000Y-144840000D02*
X146745000Y-142180000D01*
X139065000Y-144840000D02*
X146745000Y-144840000D01*
X139065000Y-142180000D02*
X146745000Y-142180000D01*
X139065000Y-144840000D02*
X139065000Y-142180000D01*
X137795000Y-144840000D02*
X136465000Y-144840000D01*
X136465000Y-144840000D02*
X136465000Y-143510000D01*
X146730000Y-110900000D02*
X146730000Y-112620000D01*
X146730000Y-112620000D02*
X150450000Y-112620000D01*
X150450000Y-112620000D02*
X150450000Y-110900000D01*
X150450000Y-110900000D02*
X146730000Y-110900000D01*
X145660000Y-111760000D02*
X146730000Y-111760000D01*
X151520000Y-111760000D02*
X150450000Y-111760000D01*
X146730000Y-113440000D02*
X146730000Y-115160000D01*
X146730000Y-115160000D02*
X150450000Y-115160000D01*
X150450000Y-115160000D02*
X150450000Y-113440000D01*
X150450000Y-113440000D02*
X146730000Y-113440000D01*
X145660000Y-114300000D02*
X146730000Y-114300000D01*
X151520000Y-114300000D02*
X150450000Y-114300000D01*
X146730000Y-126140000D02*
X146730000Y-127860000D01*
X146730000Y-127860000D02*
X150450000Y-127860000D01*
X150450000Y-127860000D02*
X150450000Y-126140000D01*
X150450000Y-126140000D02*
X146730000Y-126140000D01*
X145660000Y-127000000D02*
X146730000Y-127000000D01*
X151520000Y-127000000D02*
X150450000Y-127000000D01*
X146730000Y-133760000D02*
X146730000Y-135480000D01*
X146730000Y-135480000D02*
X150450000Y-135480000D01*
X150450000Y-135480000D02*
X150450000Y-133760000D01*
X150450000Y-133760000D02*
X146730000Y-133760000D01*
X145660000Y-134620000D02*
X146730000Y-134620000D01*
X151520000Y-134620000D02*
X150450000Y-134620000D01*
X146730000Y-136300000D02*
X146730000Y-138020000D01*
X146730000Y-138020000D02*
X150450000Y-138020000D01*
X150450000Y-138020000D02*
X150450000Y-136300000D01*
X150450000Y-136300000D02*
X146730000Y-136300000D01*
X145660000Y-137160000D02*
X146730000Y-137160000D01*
X151520000Y-137160000D02*
X150450000Y-137160000D01*
X135620000Y-83760000D02*
G75*
G02X133620000Y-83760000I-1000000J0D01*
G01*
X133620000Y-83760000D02*
X132370000Y-83760000D01*
X132370000Y-83760000D02*
X132370000Y-106740000D01*
X132370000Y-106740000D02*
X136870000Y-106740000D01*
X136870000Y-106740000D02*
X136870000Y-83760000D01*
X136870000Y-83760000D02*
X135620000Y-83760000D01*
X149590000Y-83760000D02*
G75*
G02X147590000Y-83760000I-1000000J0D01*
G01*
X147590000Y-83760000D02*
X146340000Y-83760000D01*
X146340000Y-83760000D02*
X146340000Y-106740000D01*
X146340000Y-106740000D02*
X150840000Y-106740000D01*
X150840000Y-106740000D02*
X150840000Y-83760000D01*
X150840000Y-83760000D02*
X149590000Y-83760000D01*
X135620000Y-115510000D02*
G75*
G02X133620000Y-115510000I-1000000J0D01*
G01*
X133620000Y-115510000D02*
X132370000Y-115510000D01*
X132370000Y-115510000D02*
X132370000Y-138490000D01*
X132370000Y-138490000D02*
X136870000Y-138490000D01*
X136870000Y-138490000D02*
X136870000Y-115510000D01*
X136870000Y-115510000D02*
X135620000Y-115510000D01*
X145375000Y-118125000D02*
X151625000Y-118125000D01*
X145375000Y-123175000D02*
X151625000Y-123175000D01*
X145375000Y-123175000D02*
G75*
G02X145375000Y-118125000I0J2525000D01*
G01*
X151625000Y-123175000D02*
G75*
G03X151625000Y-118125000I0J2525000D01*
G01*
X137200000Y-113070000D02*
X132080000Y-113070000D01*
X137200000Y-110450000D02*
X132080000Y-110450000D01*
X137200000Y-113070000D02*
X137200000Y-110450000D01*
X132080000Y-113070000D02*
X132080000Y-110450000D01*
X146530000Y-128480000D02*
X146530000Y-130600000D01*
X146530000Y-130600000D02*
X150650000Y-130600000D01*
X150650000Y-130600000D02*
X150650000Y-128480000D01*
X150650000Y-128480000D02*
X146530000Y-128480000D01*
X145760000Y-129540000D02*
X146530000Y-129540000D01*
X151420000Y-129540000D02*
X150650000Y-129540000D01*
X147190000Y-128480000D02*
X147190000Y-130600000D01*
X146530000Y-131020000D02*
X146530000Y-133140000D01*
X146530000Y-133140000D02*
X150650000Y-133140000D01*
X150650000Y-133140000D02*
X150650000Y-131020000D01*
X150650000Y-131020000D02*
X146530000Y-131020000D01*
X145760000Y-132080000D02*
X146530000Y-132080000D01*
X151420000Y-132080000D02*
X150650000Y-132080000D01*
X147190000Y-131020000D02*
X147190000Y-133140000D01*
X143604998Y-79463811D02*
G75*
G03X139564307Y-79465000I-2019998J-1181189D01*
G01*
X143604998Y-81826189D02*
G75*
G02X139564307Y-81825000I-2019998J1181189D01*
G01*
X143604998Y-81826189D02*
G75*
G03X143605693Y-79465000I-2019998J1181189D01*
G01*
X138135000Y-80645000D02*
X139335000Y-80645000D01*
X138735000Y-79995000D02*
X138735000Y-81295000D01*
X130080002Y-144691189D02*
G75*
G03X134120693Y-144690000I2019998J1181189D01*
G01*
X130080002Y-142328811D02*
G75*
G02X134120693Y-142330000I2019998J-1181189D01*
G01*
X130080002Y-142328811D02*
G75*
G03X130079307Y-144690000I2019998J-1181189D01*
G01*
X135550000Y-143510000D02*
X134350000Y-143510000D01*
X134950000Y-144160000D02*
X134950000Y-142860000D01*
X149130002Y-144691189D02*
G75*
G03X153170693Y-144690000I2019998J1181189D01*
G01*
X149130002Y-142328811D02*
G75*
G02X153170693Y-142330000I2019998J-1181189D01*
G01*
X149130002Y-142328811D02*
G75*
G03X149129307Y-144690000I2019998J-1181189D01*
G01*
X154600000Y-143510000D02*
X153400000Y-143510000D01*
X154000000Y-144160000D02*
X154000000Y-142860000D01*
D13*
X141271667Y-146137381D02*
X141271667Y-146851667D01*
X141224047Y-146994524D01*
X141128809Y-147089762D01*
X140985952Y-147137381D01*
X140890714Y-147137381D01*
X142271667Y-147137381D02*
X141700238Y-147137381D01*
X141985952Y-147137381D02*
X141985952Y-146137381D01*
X141890714Y-146280238D01*
X141795476Y-146375476D01*
X141700238Y-146423095D01*
X154773334Y-112212381D02*
X154440000Y-111736190D01*
X154201905Y-112212381D02*
X154201905Y-111212381D01*
X154582858Y-111212381D01*
X154678096Y-111260000D01*
X154725715Y-111307619D01*
X154773334Y-111402857D01*
X154773334Y-111545714D01*
X154725715Y-111640952D01*
X154678096Y-111688571D01*
X154582858Y-111736190D01*
X154201905Y-111736190D01*
X155725715Y-112212381D02*
X155154286Y-112212381D01*
X155440000Y-112212381D02*
X155440000Y-111212381D01*
X155344762Y-111355238D01*
X155249524Y-111450476D01*
X155154286Y-111498095D01*
X154773334Y-114752381D02*
X154440000Y-114276190D01*
X154201905Y-114752381D02*
X154201905Y-113752381D01*
X154582858Y-113752381D01*
X154678096Y-113800000D01*
X154725715Y-113847619D01*
X154773334Y-113942857D01*
X154773334Y-114085714D01*
X154725715Y-114180952D01*
X154678096Y-114228571D01*
X154582858Y-114276190D01*
X154201905Y-114276190D01*
X155154286Y-113847619D02*
X155201905Y-113800000D01*
X155297143Y-113752381D01*
X155535239Y-113752381D01*
X155630477Y-113800000D01*
X155678096Y-113847619D01*
X155725715Y-113942857D01*
X155725715Y-114038095D01*
X155678096Y-114180952D01*
X155106667Y-114752381D01*
X155725715Y-114752381D01*
X154773334Y-127452381D02*
X154440000Y-126976190D01*
X154201905Y-127452381D02*
X154201905Y-126452381D01*
X154582858Y-126452381D01*
X154678096Y-126500000D01*
X154725715Y-126547619D01*
X154773334Y-126642857D01*
X154773334Y-126785714D01*
X154725715Y-126880952D01*
X154678096Y-126928571D01*
X154582858Y-126976190D01*
X154201905Y-126976190D01*
X155106667Y-126452381D02*
X155725715Y-126452381D01*
X155392381Y-126833333D01*
X155535239Y-126833333D01*
X155630477Y-126880952D01*
X155678096Y-126928571D01*
X155725715Y-127023810D01*
X155725715Y-127261905D01*
X155678096Y-127357143D01*
X155630477Y-127404762D01*
X155535239Y-127452381D01*
X155249524Y-127452381D01*
X155154286Y-127404762D01*
X155106667Y-127357143D01*
X154773334Y-135072381D02*
X154440000Y-134596190D01*
X154201905Y-135072381D02*
X154201905Y-134072381D01*
X154582858Y-134072381D01*
X154678096Y-134120000D01*
X154725715Y-134167619D01*
X154773334Y-134262857D01*
X154773334Y-134405714D01*
X154725715Y-134500952D01*
X154678096Y-134548571D01*
X154582858Y-134596190D01*
X154201905Y-134596190D01*
X155630477Y-134405714D02*
X155630477Y-135072381D01*
X155392381Y-134024762D02*
X155154286Y-134739048D01*
X155773334Y-134739048D01*
X154773334Y-137612381D02*
X154440000Y-137136190D01*
X154201905Y-137612381D02*
X154201905Y-136612381D01*
X154582858Y-136612381D01*
X154678096Y-136660000D01*
X154725715Y-136707619D01*
X154773334Y-136802857D01*
X154773334Y-136945714D01*
X154725715Y-137040952D01*
X154678096Y-137088571D01*
X154582858Y-137136190D01*
X154201905Y-137136190D01*
X155678096Y-136612381D02*
X155201905Y-136612381D01*
X155154286Y-137088571D01*
X155201905Y-137040952D01*
X155297143Y-136993333D01*
X155535239Y-136993333D01*
X155630477Y-137040952D01*
X155678096Y-137088571D01*
X155725715Y-137183810D01*
X155725715Y-137421905D01*
X155678096Y-137517143D01*
X155630477Y-137564762D01*
X155535239Y-137612381D01*
X155297143Y-137612381D01*
X155201905Y-137564762D01*
X155154286Y-137517143D01*
X133858095Y-82212381D02*
X133858095Y-83021905D01*
X133905714Y-83117143D01*
X133953333Y-83164762D01*
X134048571Y-83212381D01*
X134239048Y-83212381D01*
X134334286Y-83164762D01*
X134381905Y-83117143D01*
X134429524Y-83021905D01*
X134429524Y-82212381D01*
X135429524Y-83212381D02*
X134858095Y-83212381D01*
X135143809Y-83212381D02*
X135143809Y-82212381D01*
X135048571Y-82355238D01*
X134953333Y-82450476D01*
X134858095Y-82498095D01*
X147828095Y-82212381D02*
X147828095Y-83021905D01*
X147875714Y-83117143D01*
X147923333Y-83164762D01*
X148018571Y-83212381D01*
X148209048Y-83212381D01*
X148304286Y-83164762D01*
X148351905Y-83117143D01*
X148399524Y-83021905D01*
X148399524Y-82212381D01*
X148828095Y-82307619D02*
X148875714Y-82260000D01*
X148970952Y-82212381D01*
X149209048Y-82212381D01*
X149304286Y-82260000D01*
X149351905Y-82307619D01*
X149399524Y-82402857D01*
X149399524Y-82498095D01*
X149351905Y-82640952D01*
X148780476Y-83212381D01*
X149399524Y-83212381D01*
X133858095Y-113962381D02*
X133858095Y-114771905D01*
X133905714Y-114867143D01*
X133953333Y-114914762D01*
X134048571Y-114962381D01*
X134239048Y-114962381D01*
X134334286Y-114914762D01*
X134381905Y-114867143D01*
X134429524Y-114771905D01*
X134429524Y-113962381D01*
X134810476Y-113962381D02*
X135429524Y-113962381D01*
X135096190Y-114343333D01*
X135239048Y-114343333D01*
X135334286Y-114390952D01*
X135381905Y-114438571D01*
X135429524Y-114533810D01*
X135429524Y-114771905D01*
X135381905Y-114867143D01*
X135334286Y-114914762D01*
X135239048Y-114962381D01*
X134953333Y-114962381D01*
X134858095Y-114914762D01*
X134810476Y-114867143D01*
X147780476Y-123912381D02*
X148447143Y-124912381D01*
X148447143Y-123912381D02*
X147780476Y-124912381D01*
X149351905Y-124912381D02*
X148780476Y-124912381D01*
X149066190Y-124912381D02*
X149066190Y-123912381D01*
X148970952Y-124055238D01*
X148875714Y-124150476D01*
X148780476Y-124198095D01*
X139533334Y-112117143D02*
X139485715Y-112164762D01*
X139342858Y-112212381D01*
X139247620Y-112212381D01*
X139104762Y-112164762D01*
X139009524Y-112069524D01*
X138961905Y-111974286D01*
X138914286Y-111783810D01*
X138914286Y-111640952D01*
X138961905Y-111450476D01*
X139009524Y-111355238D01*
X139104762Y-111260000D01*
X139247620Y-111212381D01*
X139342858Y-111212381D01*
X139485715Y-111260000D01*
X139533334Y-111307619D01*
X139914286Y-111307619D02*
X139961905Y-111260000D01*
X140057143Y-111212381D01*
X140295239Y-111212381D01*
X140390477Y-111260000D01*
X140438096Y-111307619D01*
X140485715Y-111402857D01*
X140485715Y-111498095D01*
X140438096Y-111640952D01*
X139866667Y-112212381D01*
X140485715Y-112212381D01*
X154201905Y-129992381D02*
X154201905Y-128992381D01*
X154440000Y-128992381D01*
X154582858Y-129040000D01*
X154678096Y-129135238D01*
X154725715Y-129230476D01*
X154773334Y-129420952D01*
X154773334Y-129563810D01*
X154725715Y-129754286D01*
X154678096Y-129849524D01*
X154582858Y-129944762D01*
X154440000Y-129992381D01*
X154201905Y-129992381D01*
X155725715Y-129992381D02*
X155154286Y-129992381D01*
X155440000Y-129992381D02*
X155440000Y-128992381D01*
X155344762Y-129135238D01*
X155249524Y-129230476D01*
X155154286Y-129278095D01*
X154201905Y-132532381D02*
X154201905Y-131532381D01*
X154440000Y-131532381D01*
X154582858Y-131580000D01*
X154678096Y-131675238D01*
X154725715Y-131770476D01*
X154773334Y-131960952D01*
X154773334Y-132103810D01*
X154725715Y-132294286D01*
X154678096Y-132389524D01*
X154582858Y-132484762D01*
X154440000Y-132532381D01*
X154201905Y-132532381D01*
X155154286Y-131627619D02*
X155201905Y-131580000D01*
X155297143Y-131532381D01*
X155535239Y-131532381D01*
X155630477Y-131580000D01*
X155678096Y-131627619D01*
X155725715Y-131722857D01*
X155725715Y-131818095D01*
X155678096Y-131960952D01*
X155106667Y-132532381D01*
X155725715Y-132532381D01*
X145248334Y-81002143D02*
X145200715Y-81049762D01*
X145057858Y-81097381D01*
X144962620Y-81097381D01*
X144819762Y-81049762D01*
X144724524Y-80954524D01*
X144676905Y-80859286D01*
X144629286Y-80668810D01*
X144629286Y-80525952D01*
X144676905Y-80335476D01*
X144724524Y-80240238D01*
X144819762Y-80145000D01*
X144962620Y-80097381D01*
X145057858Y-80097381D01*
X145200715Y-80145000D01*
X145248334Y-80192619D01*
X146200715Y-81097381D02*
X145629286Y-81097381D01*
X145915000Y-81097381D02*
X145915000Y-80097381D01*
X145819762Y-80240238D01*
X145724524Y-80335476D01*
X145629286Y-80383095D01*
X131933334Y-147427143D02*
X131885715Y-147474762D01*
X131742858Y-147522381D01*
X131647620Y-147522381D01*
X131504762Y-147474762D01*
X131409524Y-147379524D01*
X131361905Y-147284286D01*
X131314286Y-147093810D01*
X131314286Y-146950952D01*
X131361905Y-146760476D01*
X131409524Y-146665238D01*
X131504762Y-146570000D01*
X131647620Y-146522381D01*
X131742858Y-146522381D01*
X131885715Y-146570000D01*
X131933334Y-146617619D01*
X132266667Y-146522381D02*
X132885715Y-146522381D01*
X132552381Y-146903333D01*
X132695239Y-146903333D01*
X132790477Y-146950952D01*
X132838096Y-146998571D01*
X132885715Y-147093810D01*
X132885715Y-147331905D01*
X132838096Y-147427143D01*
X132790477Y-147474762D01*
X132695239Y-147522381D01*
X132409524Y-147522381D01*
X132314286Y-147474762D01*
X132266667Y-147427143D01*
X150983334Y-147427143D02*
X150935715Y-147474762D01*
X150792858Y-147522381D01*
X150697620Y-147522381D01*
X150554762Y-147474762D01*
X150459524Y-147379524D01*
X150411905Y-147284286D01*
X150364286Y-147093810D01*
X150364286Y-146950952D01*
X150411905Y-146760476D01*
X150459524Y-146665238D01*
X150554762Y-146570000D01*
X150697620Y-146522381D01*
X150792858Y-146522381D01*
X150935715Y-146570000D01*
X150983334Y-146617619D01*
X151840477Y-146855714D02*
X151840477Y-147522381D01*
X151602381Y-146474762D02*
X151364286Y-147189048D01*
X151983334Y-147189048D01*
M02*
