M48
;DRILL file {KiCad 4.0.7} date Thursday, November 09, 2017 'PMt' 11:15:44 PM
;FORMAT={-:-/ absolute / inch / decimal}
FMAT,2
INCH,TZ
T1C0.028
T2C0.031
T3C0.039
%
G90
G05
M72
T1
X5.7Y-4.4
X5.7Y-4.5
X5.7Y-5.
X5.7Y-5.3
X5.7Y-5.4
X6.Y-4.4
X6.Y-4.5
X6.Y-5.
X6.Y-5.3
X6.Y-5.4
T2
X5.15Y-3.35
X5.15Y-3.45
X5.15Y-3.55
X5.15Y-3.65
X5.15Y-3.75
X5.15Y-3.85
X5.15Y-3.95
X5.15Y-4.05
X5.15Y-4.15
X5.15Y-4.6
X5.15Y-4.7
X5.15Y-4.8
X5.15Y-4.9
X5.15Y-5.
X5.15Y-5.1
X5.15Y-5.2
X5.15Y-5.3
X5.15Y-5.4
X5.1516Y-5.65
X5.25Y-5.65
X5.2516Y-4.4
X5.35Y-4.4
X5.45Y-3.35
X5.45Y-3.45
X5.45Y-3.55
X5.45Y-3.65
X5.45Y-3.75
X5.45Y-3.85
X5.45Y-3.95
X5.45Y-4.05
X5.45Y-4.15
X5.45Y-4.6
X5.45Y-4.7
X5.45Y-4.8
X5.45Y-4.9
X5.45Y-5.
X5.45Y-5.1
X5.45Y-5.2
X5.45Y-5.3
X5.45Y-5.4
X5.525Y-3.175
X5.6234Y-3.175
X5.7Y-3.35
X5.7Y-3.45
X5.7Y-3.55
X5.7Y-3.65
X5.7Y-3.75
X5.7Y-3.85
X5.7Y-3.95
X5.7Y-4.05
X5.7Y-4.15
X5.7Y-5.1
X5.7Y-5.2
X5.75Y-4.75
X5.9016Y-5.65
X5.9429Y-4.75
X6.Y-3.35
X6.Y-3.45
X6.Y-3.55
X6.Y-3.65
X6.Y-3.75
X6.Y-3.85
X6.Y-3.95
X6.Y-4.05
X6.Y-4.15
X6.Y-5.1
X6.Y-5.2
X6.Y-5.65
T3
X5.425Y-5.65
X5.525Y-5.65
X5.625Y-5.65
X5.725Y-5.65
T0
M30
