G04 #@! TF.FileFunction,Soldermask,Top*
%FSLAX46Y46*%
G04 Gerber Fmt 4.6, Leading zero omitted, Abs format (unit mm)*
G04 Created by KiCad (PCBNEW 4.0.7) date Thursday, November 09, 2017 'PMt' 11:15:27 PM*
%MOMM*%
%LPD*%
G01*
G04 APERTURE LIST*
%ADD10C,0.100000*%
%ADD11R,2.100000X2.100000*%
%ADD12O,2.100000X2.100000*%
%ADD13C,1.800000*%
%ADD14O,1.800000X1.800000*%
%ADD15R,2.800000X2.000000*%
%ADD16O,2.800000X2.000000*%
%ADD17C,1.900000*%
%ADD18C,2.000000*%
%ADD19R,2.000000X2.000000*%
%ADD20O,2.000000X2.000000*%
G04 APERTURE END LIST*
D10*
D11*
X137795000Y-143510000D03*
D12*
X140335000Y-143510000D03*
X142875000Y-143510000D03*
X145415000Y-143510000D03*
D13*
X144780000Y-111760000D03*
D14*
X152400000Y-111760000D03*
D13*
X144780000Y-114300000D03*
D14*
X152400000Y-114300000D03*
D13*
X144780000Y-127000000D03*
D14*
X152400000Y-127000000D03*
D13*
X144780000Y-134620000D03*
D14*
X152400000Y-134620000D03*
D13*
X144780000Y-137160000D03*
D14*
X152400000Y-137160000D03*
D15*
X130810000Y-85090000D03*
D16*
X138430000Y-105410000D03*
X130810000Y-87630000D03*
X138430000Y-102870000D03*
X130810000Y-90170000D03*
X138430000Y-100330000D03*
X130810000Y-92710000D03*
X138430000Y-97790000D03*
X130810000Y-95250000D03*
X138430000Y-95250000D03*
X130810000Y-97790000D03*
X138430000Y-92710000D03*
X130810000Y-100330000D03*
X138430000Y-90170000D03*
X130810000Y-102870000D03*
X138430000Y-87630000D03*
X130810000Y-105410000D03*
X138430000Y-85090000D03*
D15*
X144780000Y-85090000D03*
D16*
X152400000Y-105410000D03*
X144780000Y-87630000D03*
X152400000Y-102870000D03*
X144780000Y-90170000D03*
X152400000Y-100330000D03*
X144780000Y-92710000D03*
X152400000Y-97790000D03*
X144780000Y-95250000D03*
X152400000Y-95250000D03*
X144780000Y-97790000D03*
X152400000Y-92710000D03*
X144780000Y-100330000D03*
X152400000Y-90170000D03*
X144780000Y-102870000D03*
X152400000Y-87630000D03*
X144780000Y-105410000D03*
X152400000Y-85090000D03*
D15*
X130810000Y-116840000D03*
D16*
X138430000Y-137160000D03*
X130810000Y-119380000D03*
X138430000Y-134620000D03*
X130810000Y-121920000D03*
X138430000Y-132080000D03*
X130810000Y-124460000D03*
X138430000Y-129540000D03*
X130810000Y-127000000D03*
X138430000Y-127000000D03*
X130810000Y-129540000D03*
X138430000Y-124460000D03*
X130810000Y-132080000D03*
X138430000Y-121920000D03*
X130810000Y-134620000D03*
X138430000Y-119380000D03*
X130810000Y-137160000D03*
X138430000Y-116840000D03*
D17*
X146050000Y-120650000D03*
X150950000Y-120650000D03*
D18*
X135890000Y-111760000D03*
X133390000Y-111760000D03*
D19*
X144780000Y-129540000D03*
D20*
X152400000Y-129540000D03*
D19*
X144780000Y-132080000D03*
D20*
X152400000Y-132080000D03*
D19*
X140335000Y-80645000D03*
D18*
X142835000Y-80645000D03*
D19*
X133350000Y-143510000D03*
D18*
X130850000Y-143510000D03*
D19*
X152400000Y-143510000D03*
D18*
X149900000Y-143510000D03*
M02*
