G04 #@! TF.FileFunction,Copper,L2,Bot,Signal*
%FSLAX46Y46*%
G04 Gerber Fmt 4.6, Leading zero omitted, Abs format (unit mm)*
G04 Created by KiCad (PCBNEW 4.0.7) date Thursday, November 09, 2017 'PMt' 11:15:27 PM*
%MOMM*%
%LPD*%
G01*
G04 APERTURE LIST*
%ADD10C,0.100000*%
%ADD11R,1.700000X1.700000*%
%ADD12O,1.700000X1.700000*%
%ADD13C,1.400000*%
%ADD14O,1.400000X1.400000*%
%ADD15R,2.400000X1.600000*%
%ADD16O,2.400000X1.600000*%
%ADD17C,1.500000*%
%ADD18C,1.600000*%
%ADD19R,1.600000X1.600000*%
%ADD20O,1.600000X1.600000*%
%ADD21C,0.304800*%
G04 APERTURE END LIST*
D10*
D11*
X137795000Y-143510000D03*
D12*
X140335000Y-143510000D03*
X142875000Y-143510000D03*
X145415000Y-143510000D03*
D13*
X144780000Y-111760000D03*
D14*
X152400000Y-111760000D03*
D13*
X144780000Y-114300000D03*
D14*
X152400000Y-114300000D03*
D13*
X144780000Y-127000000D03*
D14*
X152400000Y-127000000D03*
D13*
X144780000Y-134620000D03*
D14*
X152400000Y-134620000D03*
D13*
X144780000Y-137160000D03*
D14*
X152400000Y-137160000D03*
D15*
X130810000Y-85090000D03*
D16*
X138430000Y-105410000D03*
X130810000Y-87630000D03*
X138430000Y-102870000D03*
X130810000Y-90170000D03*
X138430000Y-100330000D03*
X130810000Y-92710000D03*
X138430000Y-97790000D03*
X130810000Y-95250000D03*
X138430000Y-95250000D03*
X130810000Y-97790000D03*
X138430000Y-92710000D03*
X130810000Y-100330000D03*
X138430000Y-90170000D03*
X130810000Y-102870000D03*
X138430000Y-87630000D03*
X130810000Y-105410000D03*
X138430000Y-85090000D03*
D15*
X144780000Y-85090000D03*
D16*
X152400000Y-105410000D03*
X144780000Y-87630000D03*
X152400000Y-102870000D03*
X144780000Y-90170000D03*
X152400000Y-100330000D03*
X144780000Y-92710000D03*
X152400000Y-97790000D03*
X144780000Y-95250000D03*
X152400000Y-95250000D03*
X144780000Y-97790000D03*
X152400000Y-92710000D03*
X144780000Y-100330000D03*
X152400000Y-90170000D03*
X144780000Y-102870000D03*
X152400000Y-87630000D03*
X144780000Y-105410000D03*
X152400000Y-85090000D03*
D15*
X130810000Y-116840000D03*
D16*
X138430000Y-137160000D03*
X130810000Y-119380000D03*
X138430000Y-134620000D03*
X130810000Y-121920000D03*
X138430000Y-132080000D03*
X130810000Y-124460000D03*
X138430000Y-129540000D03*
X130810000Y-127000000D03*
X138430000Y-127000000D03*
X130810000Y-129540000D03*
X138430000Y-124460000D03*
X130810000Y-132080000D03*
X138430000Y-121920000D03*
X130810000Y-134620000D03*
X138430000Y-119380000D03*
X130810000Y-137160000D03*
X138430000Y-116840000D03*
D17*
X146050000Y-120650000D03*
X150950000Y-120650000D03*
D18*
X135890000Y-111760000D03*
X133390000Y-111760000D03*
D19*
X144780000Y-129540000D03*
D20*
X152400000Y-129540000D03*
D19*
X144780000Y-132080000D03*
D20*
X152400000Y-132080000D03*
D19*
X140335000Y-80645000D03*
D18*
X142835000Y-80645000D03*
D19*
X133350000Y-143510000D03*
D18*
X130850000Y-143510000D03*
D19*
X152400000Y-143510000D03*
D18*
X149900000Y-143510000D03*
D21*
X136772500Y-112642500D02*
X136772500Y-116840000D01*
X135890000Y-111760000D02*
X136772500Y-112642500D01*
X138430000Y-116840000D02*
X136772500Y-116840000D01*
X140335000Y-80645000D02*
X140335000Y-81902500D01*
X138430000Y-85090000D02*
X140087500Y-85090000D01*
X152400000Y-85090000D02*
X150742500Y-85090000D01*
X140335000Y-81902500D02*
X140335000Y-83467500D01*
X140087500Y-83715000D02*
X140335000Y-83467500D01*
X140087500Y-85090000D02*
X140087500Y-83715000D01*
X149120000Y-83467500D02*
X150742500Y-85090000D01*
X140335000Y-83467500D02*
X149120000Y-83467500D01*
X130810000Y-137160000D02*
X132467500Y-137160000D01*
X132467500Y-142202400D02*
X132467500Y-137160000D01*
X132157600Y-142202400D02*
X132467500Y-142202400D01*
X130850000Y-143510000D02*
X132157600Y-142202400D01*
X139027400Y-142202400D02*
X140335000Y-143510000D01*
X132467500Y-142202400D02*
X139027400Y-142202400D01*
X136772500Y-121145000D02*
X132467500Y-116840000D01*
X136772500Y-124460000D02*
X136772500Y-121145000D01*
X138430000Y-124460000D02*
X136772500Y-124460000D01*
X130810000Y-116840000D02*
X132467500Y-116840000D01*
X133390000Y-115917500D02*
X133390000Y-111760000D01*
X132467500Y-116840000D02*
X133390000Y-115917500D01*
X130810000Y-105410000D02*
X132467500Y-105410000D01*
X144780000Y-105410000D02*
X143122500Y-105410000D01*
X141810800Y-106721700D02*
X133390000Y-106721700D01*
X143122500Y-105410000D02*
X141810800Y-106721700D01*
X133390000Y-111760000D02*
X133390000Y-106721700D01*
X133390000Y-106332500D02*
X132467500Y-105410000D01*
X133390000Y-106721700D02*
X133390000Y-106332500D01*
X140335000Y-143510000D02*
X141642500Y-143510000D01*
X144182600Y-142202400D02*
X142875000Y-143510000D01*
X148592400Y-142202400D02*
X144182600Y-142202400D01*
X149900000Y-143510000D02*
X148592400Y-142202400D01*
X142875000Y-143510000D02*
X141642500Y-143510000D01*
X149972500Y-135890000D02*
X151242500Y-137160000D01*
X141357500Y-135890000D02*
X149972500Y-135890000D01*
X140087500Y-134620000D02*
X141357500Y-135890000D01*
X138430000Y-134620000D02*
X140087500Y-134620000D01*
X152400000Y-137160000D02*
X151242500Y-137160000D01*
X148577500Y-134620000D02*
X146037500Y-132080000D01*
X152400000Y-134620000D02*
X148577500Y-134620000D01*
X144780000Y-132080000D02*
X146037500Y-132080000D01*
X138430000Y-121920000D02*
X140087500Y-121920000D01*
X141357500Y-120650000D02*
X145937600Y-120650000D01*
X140087500Y-121920000D02*
X141357500Y-120650000D01*
X145937600Y-120650000D02*
X146050000Y-120650000D01*
X145937600Y-112917600D02*
X144780000Y-111760000D01*
X145937600Y-120650000D02*
X145937600Y-112917600D01*
X140087500Y-118992500D02*
X140087500Y-119380000D01*
X144780000Y-114300000D02*
X140087500Y-118992500D01*
X138430000Y-119380000D02*
X140087500Y-119380000D01*
X133725000Y-86347500D02*
X132467500Y-85090000D01*
X140234300Y-86347500D02*
X133725000Y-86347500D01*
X141491800Y-85090000D02*
X140234300Y-86347500D01*
X144780000Y-85090000D02*
X141491800Y-85090000D01*
X130810000Y-85090000D02*
X132467500Y-85090000D01*
X142259800Y-105410000D02*
X138430000Y-105410000D01*
X143542200Y-104127600D02*
X142259800Y-105410000D01*
X149460100Y-104127600D02*
X143542200Y-104127600D01*
X150742500Y-105410000D02*
X149460100Y-104127600D01*
X152400000Y-105410000D02*
X150742500Y-105410000D01*
X130810000Y-90170000D02*
X132467500Y-90170000D01*
X141852600Y-91439900D02*
X143122500Y-90170000D01*
X133737400Y-91439900D02*
X141852600Y-91439900D01*
X132467500Y-90170000D02*
X133737400Y-91439900D01*
X144780000Y-90170000D02*
X143122500Y-90170000D01*
X149472600Y-99060100D02*
X150742500Y-100330000D01*
X141357400Y-99060100D02*
X149472600Y-99060100D01*
X140087500Y-100330000D02*
X141357400Y-99060100D01*
X138430000Y-100330000D02*
X140087500Y-100330000D01*
X152400000Y-100330000D02*
X150742500Y-100330000D01*
X133737500Y-93980000D02*
X132467500Y-95250000D01*
X141852500Y-93980000D02*
X133737500Y-93980000D01*
X143122500Y-95250000D02*
X141852500Y-93980000D01*
X144780000Y-95250000D02*
X143122500Y-95250000D01*
X130810000Y-95250000D02*
X132467500Y-95250000D01*
X133737400Y-96520100D02*
X132467500Y-97790000D01*
X141852600Y-96520100D02*
X133737400Y-96520100D01*
X143122500Y-97790000D02*
X141852600Y-96520100D01*
X144780000Y-97790000D02*
X143122500Y-97790000D01*
X130810000Y-97790000D02*
X132467500Y-97790000D01*
X142259800Y-92710000D02*
X138430000Y-92710000D01*
X143542200Y-91427600D02*
X142259800Y-92710000D01*
X149460100Y-91427600D02*
X143542200Y-91427600D01*
X150742500Y-92710000D02*
X149460100Y-91427600D01*
X152400000Y-92710000D02*
X150742500Y-92710000D01*
X133725100Y-101587600D02*
X132467500Y-100330000D01*
X141864900Y-101587600D02*
X133725100Y-101587600D01*
X143122500Y-100330000D02*
X141864900Y-101587600D01*
X144780000Y-100330000D02*
X143122500Y-100330000D01*
X130810000Y-100330000D02*
X132467500Y-100330000D01*
X141357500Y-88900000D02*
X140087500Y-90170000D01*
X149472500Y-88900000D02*
X141357500Y-88900000D01*
X150742500Y-90170000D02*
X149472500Y-88900000D01*
X152400000Y-90170000D02*
X150742500Y-90170000D01*
X138430000Y-90170000D02*
X140087500Y-90170000D01*
X133749800Y-104152300D02*
X132467500Y-102870000D01*
X141840200Y-104152300D02*
X133749800Y-104152300D01*
X143122500Y-102870000D02*
X141840200Y-104152300D01*
X144780000Y-102870000D02*
X143122500Y-102870000D01*
X130810000Y-102870000D02*
X132467500Y-102870000D01*
X141369800Y-86347700D02*
X140087500Y-87630000D01*
X149460200Y-86347700D02*
X141369800Y-86347700D01*
X150742500Y-87630000D02*
X149460200Y-86347700D01*
X152400000Y-87630000D02*
X150742500Y-87630000D01*
X138430000Y-87630000D02*
X140087500Y-87630000D01*
X138430000Y-137160000D02*
X136772500Y-137160000D01*
X138430000Y-129540000D02*
X140087500Y-129540000D01*
X152400000Y-97790000D02*
X154057500Y-97790000D01*
X154057500Y-115570000D02*
X140087500Y-129540000D01*
X154057500Y-97790000D02*
X154057500Y-115570000D01*
X130810000Y-132080000D02*
X132315000Y-132080000D01*
X138430000Y-129540000D02*
X136772500Y-129540000D01*
X134232500Y-134620000D02*
X136772500Y-137160000D01*
X134232500Y-132080000D02*
X134232500Y-134620000D01*
X132315000Y-132080000D02*
X134232500Y-132080000D01*
X134232500Y-132080000D02*
X136772500Y-129540000D01*
X130810000Y-124460000D02*
X132467500Y-124460000D01*
X132467500Y-125235000D02*
X132467500Y-124460000D01*
X136772500Y-129540000D02*
X132467500Y-125235000D01*
X154714600Y-95907100D02*
X154057500Y-95250000D01*
X154714600Y-118745200D02*
X154714600Y-95907100D01*
X145277400Y-128182400D02*
X154714600Y-118745200D01*
X143881500Y-128182400D02*
X145277400Y-128182400D01*
X140087500Y-131976400D02*
X143881500Y-128182400D01*
X140087500Y-132080000D02*
X140087500Y-131976400D01*
X138430000Y-132080000D02*
X140087500Y-132080000D01*
X152400000Y-95250000D02*
X154057500Y-95250000D01*
M02*
