G04 #@! TF.FileFunction,Copper,L1,Top,Signal*
%FSLAX46Y46*%
G04 Gerber Fmt 4.6, Leading zero omitted, Abs format (unit mm)*
G04 Created by KiCad (PCBNEW 4.0.7) date Thursday, November 09, 2017 'PMt' 11:15:27 PM*
%MOMM*%
%LPD*%
G01*
G04 APERTURE LIST*
%ADD10C,0.100000*%
%ADD11R,1.700000X1.700000*%
%ADD12O,1.700000X1.700000*%
%ADD13C,1.400000*%
%ADD14O,1.400000X1.400000*%
%ADD15R,2.400000X1.600000*%
%ADD16O,2.400000X1.600000*%
%ADD17C,1.500000*%
%ADD18C,1.600000*%
%ADD19R,1.600000X1.600000*%
%ADD20O,1.600000X1.600000*%
%ADD21C,0.304800*%
G04 APERTURE END LIST*
D10*
D11*
X137795000Y-143510000D03*
D12*
X140335000Y-143510000D03*
X142875000Y-143510000D03*
X145415000Y-143510000D03*
D13*
X144780000Y-111760000D03*
D14*
X152400000Y-111760000D03*
D13*
X144780000Y-114300000D03*
D14*
X152400000Y-114300000D03*
D13*
X144780000Y-127000000D03*
D14*
X152400000Y-127000000D03*
D13*
X144780000Y-134620000D03*
D14*
X152400000Y-134620000D03*
D13*
X144780000Y-137160000D03*
D14*
X152400000Y-137160000D03*
D15*
X130810000Y-85090000D03*
D16*
X138430000Y-105410000D03*
X130810000Y-87630000D03*
X138430000Y-102870000D03*
X130810000Y-90170000D03*
X138430000Y-100330000D03*
X130810000Y-92710000D03*
X138430000Y-97790000D03*
X130810000Y-95250000D03*
X138430000Y-95250000D03*
X130810000Y-97790000D03*
X138430000Y-92710000D03*
X130810000Y-100330000D03*
X138430000Y-90170000D03*
X130810000Y-102870000D03*
X138430000Y-87630000D03*
X130810000Y-105410000D03*
X138430000Y-85090000D03*
D15*
X144780000Y-85090000D03*
D16*
X152400000Y-105410000D03*
X144780000Y-87630000D03*
X152400000Y-102870000D03*
X144780000Y-90170000D03*
X152400000Y-100330000D03*
X144780000Y-92710000D03*
X152400000Y-97790000D03*
X144780000Y-95250000D03*
X152400000Y-95250000D03*
X144780000Y-97790000D03*
X152400000Y-92710000D03*
X144780000Y-100330000D03*
X152400000Y-90170000D03*
X144780000Y-102870000D03*
X152400000Y-87630000D03*
X144780000Y-105410000D03*
X152400000Y-85090000D03*
D15*
X130810000Y-116840000D03*
D16*
X138430000Y-137160000D03*
X130810000Y-119380000D03*
X138430000Y-134620000D03*
X130810000Y-121920000D03*
X138430000Y-132080000D03*
X130810000Y-124460000D03*
X138430000Y-129540000D03*
X130810000Y-127000000D03*
X138430000Y-127000000D03*
X130810000Y-129540000D03*
X138430000Y-124460000D03*
X130810000Y-132080000D03*
X138430000Y-121920000D03*
X130810000Y-134620000D03*
X138430000Y-119380000D03*
X130810000Y-137160000D03*
X138430000Y-116840000D03*
D17*
X146050000Y-120650000D03*
X150950000Y-120650000D03*
D18*
X135890000Y-111760000D03*
X133390000Y-111760000D03*
D19*
X144780000Y-129540000D03*
D20*
X152400000Y-129540000D03*
D19*
X144780000Y-132080000D03*
D20*
X152400000Y-132080000D03*
D19*
X140335000Y-80645000D03*
D18*
X142835000Y-80645000D03*
D19*
X133350000Y-143510000D03*
D18*
X130850000Y-143510000D03*
D19*
X152400000Y-143510000D03*
D18*
X149900000Y-143510000D03*
D21*
X138430000Y-116840000D02*
X140087500Y-116840000D01*
X140087500Y-122307500D02*
X144780000Y-127000000D01*
X140087500Y-116840000D02*
X140087500Y-122307500D01*
X143522400Y-133362400D02*
X144780000Y-134620000D01*
X143522400Y-128257600D02*
X143522400Y-133362400D01*
X144780000Y-127000000D02*
X143522400Y-128257600D01*
X144780000Y-134620000D02*
X144780000Y-137160000D01*
X135501700Y-111371700D02*
X135890000Y-111760000D01*
X135501700Y-86360800D02*
X135501700Y-111371700D01*
X136772500Y-85090000D02*
X135501700Y-86360800D01*
X138430000Y-85090000D02*
X136772500Y-85090000D01*
X152400000Y-111760000D02*
X152400000Y-114300000D01*
X140087500Y-127523600D02*
X140087500Y-124460000D01*
X139341100Y-128270000D02*
X140087500Y-127523600D01*
X137508000Y-128270000D02*
X139341100Y-128270000D01*
X132467500Y-133310500D02*
X137508000Y-128270000D01*
X132467500Y-137160000D02*
X132467500Y-133310500D01*
X130810000Y-137160000D02*
X132467500Y-137160000D01*
X138430000Y-124460000D02*
X140087500Y-124460000D01*
X144780000Y-105410000D02*
X146437500Y-105410000D01*
X152400000Y-111760000D02*
X152400000Y-110602500D01*
X147087300Y-105410000D02*
X146437500Y-105410000D01*
X147087300Y-84726300D02*
X147087300Y-105410000D01*
X143006000Y-80645000D02*
X147087300Y-84726300D01*
X142835000Y-80645000D02*
X143006000Y-80645000D01*
X152279800Y-110602500D02*
X152400000Y-110602500D01*
X147087300Y-105410000D02*
X152279800Y-110602500D01*
X138430000Y-134620000D02*
X136772500Y-134620000D01*
X137795000Y-143510000D02*
X137795000Y-142202500D01*
X134607500Y-143345000D02*
X136772500Y-141180000D01*
X134607500Y-143510000D02*
X134607500Y-143345000D01*
X136772500Y-134620000D02*
X136772500Y-141180000D01*
X136772500Y-141180000D02*
X137795000Y-142202500D01*
X133350000Y-143510000D02*
X134607500Y-143510000D01*
X153587700Y-141064800D02*
X152400000Y-142252500D01*
X153587700Y-136675800D02*
X153587700Y-141064800D01*
X152689400Y-135777500D02*
X153587700Y-136675800D01*
X152400000Y-135777500D02*
X152689400Y-135777500D01*
X152400000Y-134620000D02*
X152400000Y-135777500D01*
X152400000Y-143510000D02*
X152400000Y-142405000D01*
X152400000Y-142405000D02*
X152400000Y-142252500D01*
X147980000Y-142252500D02*
X146722500Y-143510000D01*
X152400000Y-142252500D02*
X147980000Y-142252500D01*
X145415000Y-143510000D02*
X146722500Y-143510000D01*
X141021100Y-103803600D02*
X140087500Y-102870000D01*
X141021100Y-119766200D02*
X141021100Y-103803600D01*
X145950500Y-124695600D02*
X141021100Y-119766200D01*
X145950500Y-127477900D02*
X145950500Y-124695600D01*
X145145900Y-128282500D02*
X145950500Y-127477900D01*
X144780000Y-128282500D02*
X145145900Y-128282500D01*
X144780000Y-129540000D02*
X144780000Y-128282500D01*
X138430000Y-102870000D02*
X140087500Y-102870000D01*
X152400000Y-132080000D02*
X152400000Y-129540000D01*
X152400000Y-129540000D02*
X152400000Y-127000000D01*
X154057500Y-124185000D02*
X154057500Y-102870000D01*
X152400000Y-125842500D02*
X154057500Y-124185000D01*
X152400000Y-127000000D02*
X152400000Y-125842500D01*
X152400000Y-102870000D02*
X154057500Y-102870000D01*
X144780000Y-114480000D02*
X144780000Y-114300000D01*
X150950000Y-120650000D02*
X144780000Y-114480000D01*
X129152500Y-127000000D02*
X129152500Y-87630000D01*
X130810000Y-127000000D02*
X129152500Y-127000000D01*
X130810000Y-87630000D02*
X129152500Y-87630000D01*
X136728700Y-102031300D02*
X138430000Y-100330000D01*
X136728700Y-108768000D02*
X136728700Y-102031300D01*
X137777600Y-109816900D02*
X136728700Y-108768000D01*
X137777600Y-114353300D02*
X137777600Y-109816900D01*
X136772500Y-115358400D02*
X137777600Y-114353300D01*
X136772500Y-127000000D02*
X136772500Y-115358400D01*
X138430000Y-127000000D02*
X136772500Y-127000000D01*
X132467500Y-88532300D02*
X132467500Y-92710000D01*
X137187500Y-83812300D02*
X132467500Y-88532300D01*
X140794100Y-83812300D02*
X137187500Y-83812300D01*
X143329400Y-86347600D02*
X140794100Y-83812300D01*
X145678300Y-86347600D02*
X143329400Y-86347600D01*
X146437500Y-87106800D02*
X145678300Y-86347600D01*
X146437500Y-92710000D02*
X146437500Y-87106800D01*
X144780000Y-92710000D02*
X146437500Y-92710000D01*
X130810000Y-92710000D02*
X132467500Y-92710000D01*
X143122500Y-95300300D02*
X143122500Y-87630000D01*
X139362800Y-99060000D02*
X143122500Y-95300300D01*
X137510400Y-99060000D02*
X139362800Y-99060000D01*
X136111700Y-100458700D02*
X137510400Y-99060000D01*
X136111700Y-110190400D02*
X136111700Y-100458700D01*
X137167600Y-111246300D02*
X136111700Y-110190400D01*
X137167600Y-113485900D02*
X137167600Y-111246300D01*
X134322700Y-116330800D02*
X137167600Y-113485900D01*
X134322700Y-127684800D02*
X134322700Y-116330800D01*
X132467500Y-129540000D02*
X134322700Y-127684800D01*
X130810000Y-129540000D02*
X132467500Y-129540000D01*
X144780000Y-87630000D02*
X143122500Y-87630000D01*
X132467500Y-121920000D02*
X132467500Y-119380000D01*
X130810000Y-121920000D02*
X132467500Y-121920000D01*
X130810000Y-119380000D02*
X132467500Y-119380000D01*
M02*
