G04 #@! TF.GenerationSoftware,KiCad,Pcbnew,(5.1.5)-3*
G04 #@! TF.CreationDate,2020-03-10T17:09:28+00:00*
G04 #@! TF.ProjectId,PC-SPRINT,50432d53-5052-4494-9e54-2e6b69636164,rev?*
G04 #@! TF.SameCoordinates,Original*
G04 #@! TF.FileFunction,Copper,L1,Top*
G04 #@! TF.FilePolarity,Positive*
%FSLAX46Y46*%
G04 Gerber Fmt 4.6, Leading zero omitted, Abs format (unit mm)*
G04 Created by KiCad (PCBNEW (5.1.5)-3) date 2020-03-10 17:09:28*
%MOMM*%
%LPD*%
G04 APERTURE LIST*
%ADD10C,1.500000*%
%ADD11O,1.400000X1.400000*%
%ADD12C,1.400000*%
%ADD13O,2.400000X1.600000*%
%ADD14R,2.400000X1.600000*%
%ADD15C,1.600000*%
%ADD16O,1.700000X1.700000*%
%ADD17R,1.700000X1.700000*%
%ADD18R,1.600000X1.600000*%
%ADD19O,1.600000X1.600000*%
%ADD20O,1.500000X2.000000*%
%ADD21R,1.500000X2.000000*%
%ADD22O,2.000000X1.500000*%
%ADD23C,0.304800*%
G04 APERTURE END LIST*
D10*
X154760000Y-97790000D03*
X149860000Y-97790000D03*
D11*
X156210000Y-88900000D03*
D12*
X148590000Y-88900000D03*
D11*
X156210000Y-91440000D03*
D12*
X148590000Y-91440000D03*
D11*
X156210000Y-104140000D03*
D12*
X148590000Y-104140000D03*
D11*
X142240000Y-119380000D03*
D12*
X134620000Y-119380000D03*
D11*
X142240000Y-121920000D03*
D12*
X134620000Y-121920000D03*
D13*
X142240000Y-62230000D03*
X134620000Y-82550000D03*
X142240000Y-64770000D03*
X134620000Y-80010000D03*
X142240000Y-67310000D03*
X134620000Y-77470000D03*
X142240000Y-69850000D03*
X134620000Y-74930000D03*
X142240000Y-72390000D03*
X134620000Y-72390000D03*
X142240000Y-74930000D03*
X134620000Y-69850000D03*
X142240000Y-77470000D03*
X134620000Y-67310000D03*
X142240000Y-80010000D03*
X134620000Y-64770000D03*
X142240000Y-82550000D03*
D14*
X134620000Y-62230000D03*
D13*
X156210000Y-62230000D03*
X148590000Y-82550000D03*
X156210000Y-64770000D03*
X148590000Y-80010000D03*
X156210000Y-67310000D03*
X148590000Y-77470000D03*
X156210000Y-69850000D03*
X148590000Y-74930000D03*
X156210000Y-72390000D03*
X148590000Y-72390000D03*
X156210000Y-74930000D03*
X148590000Y-69850000D03*
X156210000Y-77470000D03*
X148590000Y-67310000D03*
X156210000Y-80010000D03*
X148590000Y-64770000D03*
X156210000Y-82550000D03*
D14*
X148590000Y-62230000D03*
D13*
X142240000Y-93980000D03*
X134620000Y-114300000D03*
X142240000Y-96520000D03*
X134620000Y-111760000D03*
X142240000Y-99060000D03*
X134620000Y-109220000D03*
X142240000Y-101600000D03*
X134620000Y-106680000D03*
X142240000Y-104140000D03*
X134620000Y-104140000D03*
X142240000Y-106680000D03*
X134620000Y-101600000D03*
X142240000Y-109220000D03*
X134620000Y-99060000D03*
X142240000Y-111760000D03*
X134620000Y-96520000D03*
X142240000Y-114300000D03*
D14*
X134620000Y-93980000D03*
D15*
X137200000Y-88900000D03*
X139700000Y-88900000D03*
D11*
X156210000Y-109220000D03*
D12*
X148590000Y-109220000D03*
D11*
X156210000Y-106680000D03*
D12*
X148590000Y-106680000D03*
D11*
X142240000Y-124460000D03*
D12*
X134620000Y-124460000D03*
D11*
X142240000Y-127000000D03*
D12*
X134620000Y-127000000D03*
D16*
X144145000Y-140970000D03*
X141605000Y-140970000D03*
X139065000Y-140970000D03*
D17*
X136525000Y-140970000D03*
D15*
X137120000Y-133350000D03*
D18*
X134620000Y-133350000D03*
D15*
X154980000Y-57150000D03*
D18*
X157480000Y-57150000D03*
D15*
X142280000Y-133350000D03*
D18*
X144780000Y-133350000D03*
D19*
X156210000Y-121920000D03*
D18*
X148590000Y-121920000D03*
D19*
X156210000Y-124460000D03*
D18*
X148590000Y-124460000D03*
D20*
X152400000Y-118110000D03*
D21*
X152400000Y-113030000D03*
D22*
X154940000Y-115570000D03*
D16*
X153670000Y-140970000D03*
D17*
X151130000Y-140970000D03*
D19*
X156210000Y-132080000D03*
D18*
X148590000Y-132080000D03*
D19*
X156210000Y-129540000D03*
D18*
X148590000Y-129540000D03*
D19*
X156210000Y-134620000D03*
D18*
X148590000Y-134620000D03*
D19*
X156210000Y-127000000D03*
D18*
X148590000Y-127000000D03*
D23*
X142240000Y-93980000D02*
X143897500Y-93980000D01*
X143897500Y-99447500D02*
X148590000Y-104140000D01*
X143897500Y-93980000D02*
X143897500Y-99447500D01*
X139311700Y-88511700D02*
X139700000Y-88900000D01*
X139311700Y-63500800D02*
X139311700Y-88511700D01*
X140582500Y-62230000D02*
X139311700Y-63500800D01*
X142240000Y-62230000D02*
X140582500Y-62230000D01*
X134620000Y-121920000D02*
X134620000Y-119380000D01*
X134620000Y-118110000D02*
X137160000Y-115570000D01*
X148590000Y-110209949D02*
X148590000Y-109220000D01*
X143229949Y-115570000D02*
X148590000Y-110209949D01*
X137160000Y-115570000D02*
X143229949Y-115570000D01*
X148590000Y-109220000D02*
X148590000Y-106680000D01*
X148590000Y-106680000D02*
X148590000Y-104140000D01*
X134620000Y-118110000D02*
X134620000Y-119380000D01*
X156210000Y-88900000D02*
X156210000Y-91440000D01*
X148590000Y-82550000D02*
X150247500Y-82550000D01*
X156210000Y-88900000D02*
X156210000Y-87742500D01*
X150897300Y-82550000D02*
X150247500Y-82550000D01*
X151017500Y-82550000D02*
X156210000Y-87742500D01*
X150897300Y-82550000D02*
X151017500Y-82550000D01*
X150897300Y-82550000D02*
X150897300Y-58652700D01*
X150897300Y-58652700D02*
X152400000Y-57150000D01*
X152400000Y-57150000D02*
X154980000Y-57150000D01*
X147485200Y-129540000D02*
X148590000Y-129540000D01*
X134620000Y-132245200D02*
X137325200Y-129540000D01*
X134620000Y-133350000D02*
X134620000Y-132245200D01*
X137325200Y-129540000D02*
X138430000Y-129540000D01*
X142240000Y-121920000D02*
X144780000Y-121920000D01*
X144780000Y-121920000D02*
X144780000Y-123190000D01*
X146050000Y-124460000D02*
X146050000Y-129540000D01*
X144780000Y-123190000D02*
X146050000Y-124460000D01*
X138430000Y-129540000D02*
X146050000Y-129540000D01*
X146050000Y-129540000D02*
X147485200Y-129540000D01*
X135370200Y-140970000D02*
X136525000Y-140970000D01*
X134620000Y-140219800D02*
X135370200Y-140970000D01*
X134620000Y-133350000D02*
X134620000Y-140219800D01*
X144145000Y-141037919D02*
X144780000Y-140402919D01*
X150304410Y-125069610D02*
X149694800Y-124460000D01*
X150304410Y-132788552D02*
X150304410Y-125069610D01*
X149694800Y-124460000D02*
X148590000Y-124460000D01*
X149742962Y-133350000D02*
X150304410Y-132788552D01*
X144780000Y-133350000D02*
X149742962Y-133350000D01*
X147485200Y-124460000D02*
X148590000Y-124460000D01*
X144780000Y-119380000D02*
X146050000Y-120650000D01*
X142240000Y-119380000D02*
X144780000Y-119380000D01*
X146050000Y-120650000D02*
X146050000Y-123190000D01*
X146050000Y-123190000D02*
X147320000Y-124460000D01*
X147320000Y-124460000D02*
X147485200Y-124460000D01*
X144780000Y-140335000D02*
X144145000Y-140970000D01*
X144780000Y-133350000D02*
X144780000Y-140335000D01*
X142640000Y-80010000D02*
X142240000Y-80010000D01*
X155967201Y-93337201D02*
X142640000Y-80010000D01*
X155967201Y-98369457D02*
X155967201Y-93337201D01*
X149694800Y-121920000D02*
X148590000Y-121920000D01*
X149747201Y-104589457D02*
X149747201Y-121867599D01*
X149747201Y-121867599D02*
X149694800Y-121920000D01*
X155967201Y-98369457D02*
X149747201Y-104589457D01*
X157714800Y-80010000D02*
X157867210Y-80162410D01*
X156210000Y-80010000D02*
X157714800Y-80010000D01*
X156210000Y-121920000D02*
X157480000Y-121920000D01*
X157480000Y-121920000D02*
X157867210Y-121532790D01*
X157867210Y-121532790D02*
X157867210Y-122802790D01*
X156210000Y-104140000D02*
X157480000Y-104140000D01*
X157480000Y-104140000D02*
X157867210Y-103752790D01*
X157867210Y-80162410D02*
X157867210Y-103752790D01*
X157867210Y-103752790D02*
X157867210Y-121532790D01*
X157009999Y-123660001D02*
X156210000Y-124460000D01*
X157867210Y-122802790D02*
X157009999Y-123660001D01*
X148590000Y-91620000D02*
X148590000Y-91440000D01*
X154760000Y-97790000D02*
X148590000Y-91620000D01*
X132962500Y-104140000D02*
X132962500Y-64770000D01*
X134620000Y-104140000D02*
X132962500Y-104140000D01*
X134620000Y-64770000D02*
X132962500Y-64770000D01*
X140538700Y-79171300D02*
X142240000Y-77470000D01*
X140538700Y-85908000D02*
X140538700Y-79171300D01*
X141587600Y-86956900D02*
X140538700Y-85908000D01*
X141587600Y-91493300D02*
X141587600Y-86956900D01*
X140582500Y-92498400D02*
X141587600Y-91493300D01*
X140582500Y-104140000D02*
X140582500Y-92498400D01*
X142240000Y-104140000D02*
X140582500Y-104140000D01*
X136277500Y-65672300D02*
X136277500Y-69850000D01*
X140997500Y-60952300D02*
X136277500Y-65672300D01*
X144604100Y-60952300D02*
X140997500Y-60952300D01*
X147139400Y-63487600D02*
X144604100Y-60952300D01*
X149488300Y-63487600D02*
X147139400Y-63487600D01*
X150247500Y-64246800D02*
X149488300Y-63487600D01*
X150247500Y-69850000D02*
X150247500Y-64246800D01*
X148590000Y-69850000D02*
X150247500Y-69850000D01*
X134620000Y-69850000D02*
X136277500Y-69850000D01*
X146932500Y-64770000D02*
X148590000Y-64770000D01*
X137160000Y-106680000D02*
X139972890Y-103867110D01*
X139972890Y-103867110D02*
X139972891Y-92245891D01*
X140970000Y-91248782D02*
X140970000Y-87201418D01*
X134620000Y-106680000D02*
X137160000Y-106680000D01*
X140970000Y-87201418D02*
X139921700Y-86153118D01*
X139972891Y-92245891D02*
X140970000Y-91248782D01*
X139921700Y-86153118D02*
X139921700Y-77598700D01*
X139921700Y-77598700D02*
X141320400Y-76200000D01*
X146932500Y-72440300D02*
X146932500Y-64770000D01*
X141320400Y-76200000D02*
X143172800Y-76200000D01*
X143172800Y-76200000D02*
X146932500Y-72440300D01*
X136277500Y-99060000D02*
X136277500Y-96520000D01*
X134620000Y-99060000D02*
X136277500Y-99060000D01*
X134620000Y-96520000D02*
X136277500Y-96520000D01*
X157467201Y-128257201D02*
X157009999Y-127799999D01*
X157467201Y-133362799D02*
X157467201Y-128257201D01*
X157009999Y-127799999D02*
X156210000Y-127000000D01*
X156210000Y-134620000D02*
X157467201Y-133362799D01*
X149694800Y-127000000D02*
X148590000Y-127000000D01*
X149975200Y-140970000D02*
X151130000Y-140970000D01*
X148590000Y-139584800D02*
X149975200Y-140970000D01*
X148590000Y-134620000D02*
X148590000Y-139584800D01*
X155410001Y-128740001D02*
X156210000Y-129540000D01*
X154952799Y-128282799D02*
X155410001Y-128740001D01*
X154952799Y-121316543D02*
X154952799Y-128282799D01*
X156909999Y-119359343D02*
X154952799Y-121316543D01*
X156909999Y-109919999D02*
X156909999Y-119359343D01*
X156210000Y-109220000D02*
X156909999Y-109919999D01*
X156210000Y-132080000D02*
X156210000Y-129540000D01*
M02*
